<svg xmlns="http://www.w3.org/2000/svg" width="118" height="21" viewBox="0 0 118 21" fill="none">
  <path d="M10.5 0L13.5859 6.25266L20.4861 7.25532L15.493 12.1223L16.6717 18.9947L10.5 15.75L4.32825 18.9947L5.50695 12.1223L0.513906 7.25532L7.41413 6.25266L10.5 0Z" fill="#FF9401"/>
  <path d="M34.6499 0L37.7358 6.25266L44.636 7.25532L39.6429 12.1223L40.8216 18.9947L34.6499 15.75L28.4782 18.9947L29.6569 12.1223L24.6638 7.25532L31.564 6.25266L34.6499 0Z" fill="#FF9401"/>
  <path d="M58.8 0L61.8859 6.25266L68.7861 7.25532L63.7931 12.1223L64.9718 18.9947L58.8 15.75L52.6283 18.9947L53.807 12.1223L48.814 7.25532L55.7142 6.25266L58.8 0Z" fill="#FF9401"/>
  <path d="M82.95 0L86.0358 6.25266L92.936 7.25532L87.943 12.1223L89.1217 18.9947L82.95 15.75L76.7782 18.9947L77.9569 12.1223L72.9639 7.25532L79.8641 6.25266L82.95 0Z" fill="#FF9401"/>
  <path d="M107.1 0L110.186 6.25266L117.086 7.25532L112.093 12.1223L113.272 18.9947L107.1 15.75L100.928 18.9947L102.107 12.1223L97.114 7.25532L104.014 6.25266L107.1 0Z" fill="#FF9401"/>
</svg>