<svg width="180" height="34" viewBox="0 0 180 34" fill="none" xmlns="http://www.w3.org/2000/svg">
<rect width="31" height="30" rx="7" fill="#F94A3D"/>
<path d="M15.1 5.344H7.736V25H15.1C21.372 25 25.404 20.996 25.404 15.172C25.404 9.32 21.372 5.344 15.1 5.344ZM12.524 20.856V9.432H14.792C18.404 9.432 20.532 11.56 20.532 15.172C20.532 18.784 18.404 20.856 14.792 20.856H12.524Z" fill="white"/>
<path d="M41.86 26H46.99V17.48H53.41V13.49H46.99V9.05H55.57V4.94H41.86V26ZM56.9463 17.6C56.9463 22.88 60.2163 26.24 64.3263 26.24C66.7863 26.24 68.5563 25.13 69.4863 23.6V26H74.6163V3.8H69.4863V11.57C68.4663 10.04 66.5463 9.02 64.3263 9.02C60.2163 9.02 56.9463 12.32 56.9463 17.6ZM69.4863 17.63C69.4863 20.3 67.7763 21.77 65.8263 21.77C63.9063 21.77 62.1663 20.27 62.1663 17.6C62.1663 14.93 63.9063 13.49 65.8263 13.49C67.7763 13.49 69.4863 14.96 69.4863 17.63ZM85.4076 13.13C87.1176 13.13 88.5576 14.18 88.5576 16.01H82.1376C82.4376 14.15 83.7276 13.13 85.4076 13.13ZM93.4176 20.45H87.9576C87.5376 21.35 86.7276 22.07 85.2876 22.07C83.6376 22.07 82.2876 21.05 82.1076 18.86H93.7176C93.7776 18.35 93.8076 17.84 93.8076 17.36C93.8076 12.26 90.3576 9.02 85.4676 9.02C80.4876 9.02 77.0076 12.32 77.0076 17.63C77.0076 22.94 80.5476 26.24 85.4676 26.24C89.6376 26.24 92.6076 23.72 93.4176 20.45ZM96.2139 26H101.344V3.8H96.2139V26ZM104.762 26H109.892V9.26H104.762V26ZM107.342 7.52C109.142 7.52 110.372 6.29 110.372 4.76C110.372 3.2 109.142 1.97 107.342 1.97C105.512 1.97 104.282 3.2 104.282 4.76C104.282 6.29 105.512 7.52 107.342 7.52ZM111.719 9.26L117.659 26H123.989L129.929 9.26H124.469L120.839 21.2L117.209 9.26H111.719ZM139.169 13.13C140.879 13.13 142.319 14.18 142.319 16.01H135.899C136.199 14.15 137.489 13.13 139.169 13.13ZM147.179 20.45H141.719C141.299 21.35 140.489 22.07 139.049 22.07C137.399 22.07 136.049 21.05 135.869 18.86H147.479C147.539 18.35 147.569 17.84 147.569 17.36C147.569 12.26 144.119 9.02 139.229 9.02C134.249 9.02 130.769 12.32 130.769 17.63C130.769 22.94 134.309 26.24 139.229 26.24C143.399 26.24 146.369 23.72 147.179 20.45ZM155.105 18.23C155.105 15.35 156.515 14.51 158.945 14.51H160.355V9.08C158.105 9.08 156.275 10.28 155.105 12.05V9.26H149.975V26H155.105V18.23ZM170.217 19.73L166.347 9.26H160.617L167.427 25.43L163.587 33.95H169.107L179.607 9.26H174.057L170.217 19.73Z" fill="#F94A3D"/>
</svg>
