<svg width="168" height="201" viewBox="0 0 168 201" fill="none" xmlns="http://www.w3.org/2000/svg">
<circle cx="82" cy="125" r="76" fill="#FBEDE4"/>
<g clip-path="url(#clip0_3119_4201)">
<path d="M141.156 93.2543C141.668 88.097 142.99 82.7672 138.776 78.5729C134.564 74.3751 126.531 74.376 123.405 79.1703C120.276 83.9673 113.41 90.1636 110.5 90.3854C107.588 90.6104 100.497 91.8898 100.497 91.8898L103.154 112.932C103.154 112.932 111.724 107.516 116.97 108.08C122.216 108.644 130.606 112.629 134.023 112.074C137.444 111.515 140.302 109.427 142.286 105.382C144.27 101.338 140.601 98.8487 141.156 93.2543Z" fill="#CB3E1F"/>
<path opacity="0.2" d="M137.71 86.1153C136.742 89.2881 138.829 90.6905 140.639 92.0207C140.84 92.1681 141.04 92.3205 141.239 92.4778C141.73 88.0817 142.573 83.609 139.876 79.8621C139.379 82.089 138.386 83.8995 137.71 86.1153Z" fill="#2D0C09"/>
<path opacity="0.2" d="M142.286 105.383C142.671 104.598 142.841 103.872 142.873 103.17C142.361 103.796 141.761 104.312 141.113 104.688C137.013 107.066 132.109 105.534 128.154 103.48C125.396 102.046 123.397 103.035 120.626 103.448C118.354 103.787 116.422 102.942 114.567 101.208C112.022 98.8278 109.487 94.7926 109.331 90.5034C106.033 90.891 100.497 91.8898 100.497 91.8898L103.154 112.932C103.154 112.932 111.724 107.516 116.97 108.08C122.216 108.644 130.606 112.629 134.023 112.074C137.444 111.515 140.303 109.427 142.286 105.383Z" fill="#2D0C09"/>
<path opacity="0.3" d="M136.125 83.1614C136.356 81.6771 135.387 80.8498 134.53 80.3054C133.192 79.4599 128.324 81.2476 128.312 83.5446C128.294 86.3988 131.907 86.3235 133.35 86.9877C134.142 87.3495 134.174 88.6703 134.791 89.2067C135.097 89.4709 135.919 89.5292 136.183 89.1368C136.998 87.9277 135.891 84.6676 136.125 83.1614Z" fill="white"/>
<path opacity="0.3" d="M137.212 102.701C134.78 99.5103 132.998 95.2163 129.704 94.2335C128.481 93.87 127.557 95.2889 126.47 95.725C124.51 96.5104 122.618 97.0071 120.578 97.2726C119.836 97.3688 118.076 97.041 117.475 97.833C116.918 98.5676 117.038 100.023 117.586 100.714C118.286 101.599 121.41 101.764 122.511 102.121C123.703 102.511 125.39 102.67 126.486 103.521C128.728 105.268 131.016 106.775 133.611 107.071C135.664 107.304 138.867 104.882 137.212 102.701Z" fill="white"/>
<path d="M113.294 109.651C112.939 111.048 112.773 112.874 111.879 113.957C111.204 114.77 110.335 114.78 109.534 114.862C108.107 115.008 106.922 117.294 105.596 117.868C103.408 118.821 101.083 118.74 98.9443 119.493C96.5547 120.344 95.4224 124.26 93.4654 126.048C92.6689 126.768 91.9653 126.188 91.1848 126.703C89.0376 128.111 87.0969 129.953 85.2087 131.892C83.8137 133.317 82.839 135.349 81.5129 136.849C80.6838 137.786 79.7501 138.409 79.0301 139.53C77.5663 141.811 76.9557 144.671 74.9382 146.437C73.3856 147.802 71.7235 148.837 69.9241 149.519C68.3027 150.136 66.6207 150.348 65.1691 151.588C62.7107 153.679 61.2551 157.953 58.6713 159.654C57.5673 160.374 54.7816 160.845 53.5442 160.277C52.9054 159.984 52.4807 158.776 51.781 158.9C50.0465 159.215 48.0895 161.56 46.4478 162.405C44.8788 163.201 43.4516 162.584 41.891 162.86C40.2332 163.163 38.7571 164.609 37.0106 164.588C35.7246 164.577 34.9728 163.412 33.7919 163.115C32.2878 162.736 31.3175 164.388 29.987 164.772C29.0043 165.049 26.7763 165.135 25.8748 164.729C24.5446 164.112 22.2155 162.709 21.4068 161.122C20.5698 159.469 20.4484 157.254 19.3527 155.927C18.6088 155.028 16.8579 155.207 15.8833 154.622C14.6296 153.874 13.1255 151.843 12.0461 150.597C10.4206 148.723 9.84233 145.245 8.35853 143.106C5.58481 139.092 4.35141 135.587 2.55203 130.674C1.7556 128.497 0.716407 126.308 0.251182 123.957C-0.294517 121.167 0.162394 117.69 0.55845 114.889C0.889993 112.538 -0.237985 109.955 0.0935578 107.604C0.433082 105.215 0.60301 102.805 1.08819 100.41C1.39945 98.8557 1.96975 97.3878 2.25275 95.8442C2.56001 94.1541 2.96837 92.3017 3.73688 90.8606C4.59816 89.2519 6.05369 87.8487 7.54979 87.5186C8.35055 87.3399 9.3209 87.6161 9.89919 86.6084C10.4775 85.5847 9.48252 84.1329 10.2347 83.2227C11.1406 82.1286 12.3577 82.6325 13.0287 80.9641C14.3549 77.6818 13.328 72.5574 16.7568 71.3439C17.8689 70.9536 19.1708 71.1162 19.9715 72.3948C20.6589 73.4889 20.6063 77.0532 22.2883 76.5712C23.2467 76.3003 25.236 74.9897 25.9719 74.1553C27.2053 72.7632 27.8198 70.5638 29.0369 69.1882C29.9388 68.1698 34.2206 67.0053 35.3732 67.1354C36.562 67.2708 37.9045 68.197 39.1013 67.8557C40.2093 67.5363 40.9695 65.835 41.8387 65.0011C43.4845 63.4249 48.0699 63.1919 49.8164 63.9827C51.2759 64.6598 52.4122 66.8209 53.8395 67.249C56.4273 68.0183 59.1688 66.6476 61.611 68.6897C63.7499 70.4716 65.3431 73.6515 67.2881 75.9373C67.6033 76.3164 67.9269 76.663 68.2668 76.9775C68.6226 77.308 68.9987 77.6003 69.3868 77.8711C70.4582 78.624 71.6307 79.1929 72.7388 79.8428C73.1069 80.054 73.4667 80.271 73.8142 80.5093C75.4476 81.6306 76.7539 82.481 78.5409 83.1038C80.5871 83.8081 82.6209 82.7029 84.7315 83.678C87.473 84.9294 90.0931 87.6322 93.1219 87.6593C94.2701 87.67 96.9471 87.2856 97.8729 86.4405C98.7302 85.6604 99.1425 84.5663 100.161 84.095C102.636 82.9519 107.161 84.1979 109.324 85.8823C110.246 86.6026 110.29 88.0923 109.995 89.3976C109.845 90.0694 109.611 90.6922 109.356 91.1363C108.818 92.0843 107.808 92.4149 107.44 93.4333C107.436 93.4386 107.436 93.4493 107.432 93.4551C107.343 93.7041 107.294 93.9915 107.302 94.3487C107.302 94.4298 107.302 94.5113 107.31 94.5924C107.423 95.9792 107.844 96.4884 108.402 97.566C108.895 98.5247 110.234 99.3752 110.82 100.307C112.005 102.186 113.938 107.127 113.294 109.651Z" fill="#DF7032"/>
<path opacity="0.2" d="M113.294 109.65C112.939 111.048 112.773 112.874 111.879 113.957C111.204 114.769 110.334 114.78 109.534 114.862C108.107 115.008 106.922 117.294 105.596 117.868C103.408 118.821 101.083 118.74 98.9442 119.493C96.5546 120.343 95.4223 124.26 93.4653 126.047C92.6689 126.768 91.9652 126.188 91.1847 126.703C89.0375 128.111 87.0968 129.953 85.2086 131.892C83.8136 133.317 82.839 135.348 81.5128 136.849C80.6838 137.786 79.75 138.409 79.03 139.53C77.5662 141.81 76.9556 144.67 74.9381 146.436C73.3855 147.801 71.7234 148.836 69.9241 149.519C68.3026 150.136 66.6206 150.347 65.1691 151.588C62.7106 153.679 61.2551 157.953 58.6712 159.653C57.5672 160.374 54.7815 160.845 53.5441 160.276C52.9053 159.984 52.4806 158.776 51.781 158.9C50.0464 159.214 48.0894 161.56 46.4477 162.405C44.8787 163.201 43.4515 162.583 41.8909 162.86C40.2332 163.163 38.757 164.609 37.0105 164.588C35.7246 164.577 34.9727 163.412 33.7918 163.114C32.2878 162.735 31.3174 164.387 29.9869 164.772C29.0042 165.048 26.7762 165.135 25.8747 164.729C24.5445 164.111 22.2154 162.709 21.4067 161.121C20.5697 159.469 20.4483 157.254 19.3526 155.927C18.6087 155.028 16.8579 155.206 15.8832 154.621C14.6295 153.874 13.1254 151.842 12.046 150.597C10.4205 148.723 9.84223 145.245 8.35844 143.105C5.58471 139.092 4.35132 135.587 2.55194 130.674C1.75551 128.496 0.716315 126.308 0.251091 123.957C-0.294609 121.167 0.162302 117.69 0.558358 114.889C0.889902 112.538 -0.238077 109.954 0.0934662 107.603C0.0974567 107.587 0.0974567 107.576 0.101447 107.566C-0.250381 110.052 4.347 117.169 5.27711 119.439C6.42937 122.256 8.33416 127.689 10.9097 128.599C11.7507 128.897 14.011 128.615 14.7509 128.583C16.7484 128.485 18.0989 128.22 19.5182 125.69C21.4024 122.337 19.324 120.235 20.6787 117.543C22.3245 114.271 25.175 114.558 24.5605 109.293C24.3018 107.088 23.3474 106.466 23.8489 103.974C24.1398 102.538 25.1308 101.748 25.5149 100.415C25.7939 99.4394 25.4946 98.1667 25.7616 97.3216C26.4287 95.2091 26.3196 95.6533 27.8643 94.5213C28.4585 94.0825 28.96 94.7271 29.5383 94.0228C29.9952 93.4646 29.6637 92.0457 29.9912 91.3254C32.8378 85.0146 38.7899 81.3474 42.9626 76.8302C49.7841 69.4472 60.0017 70.2272 67.2883 75.9365C67.83 76.3589 68.3558 76.8141 68.8652 77.2908C69.0595 77.4748 69.2334 77.6699 69.387 77.8704C70.3331 79.0674 70.7132 80.3838 72.3912 80.0101C72.5245 79.9829 72.6379 79.9232 72.739 79.8421C73.1071 80.0533 73.4669 80.2702 73.8145 80.5086C75.4479 81.6298 76.7541 82.4803 78.5412 83.1031C80.5873 83.8074 82.6211 82.7021 84.7318 83.6773C87.4732 84.9287 90.0933 87.6314 93.1221 87.6586C94.2704 87.6693 96.9473 87.2848 97.8731 86.4397C98.7304 85.6597 99.1428 84.5656 100.162 84.0943C102.636 82.9512 107.161 84.1972 109.324 85.8816C110.246 86.6019 110.291 88.0916 109.995 89.3969C109.122 90.8269 107.852 92.0297 107.44 93.4325C107.436 93.4379 107.436 93.4486 107.432 93.4544C107.351 93.7413 107.302 94.0393 107.302 94.348C107.302 94.4291 107.302 94.5106 107.31 94.5917C107.423 95.9785 107.844 96.4877 108.402 97.5653C108.895 98.524 110.234 99.3744 110.82 100.306C112.004 102.186 113.938 107.126 113.294 109.65Z" fill="#2D0C09"/>
<path opacity="0.2" d="M111.877 113.956C112.775 112.871 112.938 111.048 113.295 109.649C113.693 108.09 113.105 105.606 112.317 103.492C112.319 104.05 112.3 104.601 112.236 105.133C112.261 105.665 112.145 106.189 111.932 106.649C111.451 108.316 110.486 109.726 108.788 110.632C108.783 110.635 108.777 110.637 108.771 110.64C104.249 115.397 97.9091 114.596 93.6296 119.8C91.1648 122.797 88.3189 124.612 85.3477 126.12C84.1186 127.767 82.6488 128.837 81.1377 130.166C80.1514 131.034 80.0842 131.375 79.7061 132.695C79.4544 133.573 79.0178 134.312 78.4661 134.885C77.8755 135.499 77.1745 135.924 76.4605 136.296C75.7469 138.325 74.446 139.937 72.9968 141.213C72.9785 141.24 72.9625 141.269 72.9439 141.296C72.6097 141.778 72.1132 142.16 71.5915 142.327C71.5692 142.343 71.5469 142.361 71.5246 142.376C70.1499 143.355 68.6611 143.943 67.2691 144.853C65.3387 146.115 63.9217 148.442 62.1333 149.999C59.1867 152.566 56.5985 152.344 53.2276 152.484C49.5816 152.637 45.8771 155.187 42.3578 156.409C36.1799 158.553 29.4073 159.809 24.0737 154.142C21.6285 151.545 19.7962 148.014 17.224 145.639C14.3668 143.001 10.9264 141.239 8.87359 137.287C6.85772 133.407 5.65958 128.798 4.19008 124.535C2.72657 120.288 2.24505 115.326 0.548091 111.233C0.433365 110.973 0.317973 110.713 0.203579 110.453C0.425051 111.947 0.76125 113.459 0.55973 114.888C0.163009 117.687 -0.295233 121.168 0.251132 123.953C0.716357 126.306 1.75721 128.496 2.55331 130.669C4.35302 135.588 5.58542 139.091 8.35981 143.102C9.84427 145.246 10.4202 148.719 12.0477 150.597C13.1248 151.841 14.6315 153.872 15.8819 154.62C16.8592 155.204 18.6077 155.027 19.3533 155.927C20.4467 157.253 20.5704 159.466 21.4081 161.119C22.2145 162.709 24.5449 164.112 25.8764 164.726C26.7776 165.135 29.0036 165.049 29.9876 164.769C31.3161 164.387 32.2881 162.733 33.7925 163.115C34.9721 163.413 35.7256 164.574 37.0115 164.587C38.7574 164.608 40.2329 163.161 41.8902 162.861C43.4512 162.58 44.8798 163.203 46.4467 162.401C48.0881 161.56 50.0445 159.212 51.7813 158.898C52.4803 158.772 52.9033 159.981 53.5428 160.274C54.7812 160.841 57.5689 160.373 58.6699 159.65C61.2541 157.954 62.7106 153.68 65.1678 151.587C66.6206 150.349 68.3013 150.133 69.9248 149.517C71.7245 148.835 73.3862 147.8 74.9398 146.436C76.955 144.667 77.5676 141.807 79.0291 139.531C79.75 138.407 80.6828 137.782 81.5118 136.846C82.8387 135.346 83.8137 133.317 85.2074 131.888C87.0955 129.953 89.0362 128.108 91.1828 126.699C91.9649 126.185 92.6702 126.768 93.464 126.045C95.423 124.258 96.5536 120.339 98.9433 119.493C101.084 118.736 103.408 118.82 105.594 117.869C106.923 117.292 108.106 115.005 109.532 114.861C110.334 114.781 111.203 114.771 111.877 113.956Z" fill="#2D0C09"/>
<path opacity="0.3" d="M100.163 84.0929C99.1418 84.5643 98.7312 85.6584 97.8739 86.4402C96.9464 87.2862 94.2694 87.6715 93.1225 87.6608C90.0917 87.6287 87.473 84.93 84.7332 83.676C82.6215 82.7039 80.5857 83.8092 78.5396 83.1004C76.7545 82.4812 75.4493 81.6294 73.8132 80.5068C72.0344 79.2964 69.9198 78.5137 68.2681 76.9745C65.8488 74.7181 64.096 70.7573 61.6109 68.6876C59.1681 66.6473 56.427 68.0185 53.8395 67.2491C52.4099 66.8201 51.2772 64.6573 49.8144 63.9842C48.0712 63.189 43.4858 63.4229 41.8371 65.003C40.9681 65.8356 40.2073 67.536 39.1019 67.8532C37.9048 68.1976 36.5613 67.2714 35.3738 67.1369C34.2189 67.0059 29.9371 68.1713 29.0366 69.1883C27.8208 70.5618 27.2049 72.7611 25.9735 74.1519C25.2343 74.9872 23.2457 76.2983 22.289 76.5718C20.604 77.0543 20.6605 73.4895 19.9725 72.3967C19.1701 71.1151 17.8685 70.9511 16.7555 71.3436C13.3297 72.5566 14.3529 77.6797 13.0294 80.9634C12.357 82.6313 11.1392 82.1261 10.233 83.2216C9.4805 84.1312 10.4788 85.5844 9.89817 86.6055C9.32188 87.6172 8.35219 87.3374 7.54976 87.5151C6.053 87.8457 4.5958 89.2525 3.73619 90.8621C2.96735 92.3014 2.56065 94.1542 2.25339 95.8435C2.1646 96.3291 2.04388 96.8057 1.91519 97.2806C4.18312 96.6146 7.0862 94.2344 8.31727 93.8143C9.78012 93.3105 10.8519 93.6513 12.0078 92.0684C13.2229 90.4104 12.9007 87.7918 14.2119 86.2469C15.9897 84.1557 18.363 85.2975 17.809 88.5852C17.6713 89.3995 16.4333 90.5672 16.1506 91.5731C15.165 92.938 14.2588 94.5017 13.4447 96.3055C12.4414 98.5244 10.2061 100.974 10.3631 103.812C10.6417 108.771 16.9327 104.985 18.774 103.986C21.5727 102.466 23.9643 100.499 26.4607 98.3061C27.9605 96.9902 29.676 96.1625 31.2247 94.9668C34.2974 92.5941 36.6228 89.7163 40.4221 89.9809C44.5599 90.2647 48.3831 92.6494 52.4215 93.4958C60.8907 95.2742 69.6937 97.453 78.2114 98.4135C79.4464 98.5503 80.6958 98.597 81.9448 98.5552C86.7866 98.3761 91.654 96.8343 95.9218 94.0785C96.3056 93.8312 96.6744 93.5581 97.0359 93.2721C99.3204 91.4296 101.222 88.8614 103.773 87.1801C105.137 86.2794 106.496 86.201 106.792 84.5148C104.576 83.6604 101.876 83.3026 100.163 84.0929Z" fill="white"/>
<path opacity="0.3" d="M99.3922 103.327C98.5396 101.261 93.9711 99.8235 92.3374 99.3343C88.6056 98.2224 85.3194 100.137 81.9501 101.935C75.727 105.254 70.1147 109.24 64.4841 114.035C62.5171 115.711 60.1807 116.703 58.1339 118.205C55.0346 120.478 52.2439 123.41 48.9222 125.307C45.7311 127.13 42.2424 128.535 38.9037 129.775C36.1795 130.787 32.3477 132.049 29.6657 130.356C26.8953 128.607 26.0277 125.788 24.4611 122.592C23.7841 121.199 22.6614 120.221 21.7649 119.087C19.6669 116.439 17.646 113.253 15.0422 111.474C13.7031 110.561 7.99003 110.592 7.93416 113.589C7.89858 115.508 13.3213 117.412 14.6176 118.441C19.7114 122.484 23.8087 128.422 28.9102 132.439C34.6625 136.969 40.722 137.512 47.0197 134.416C51.4378 132.245 54.6056 128.519 58.6403 125.536C60.9708 123.813 62.8862 121.759 65.0683 119.685C67.5544 117.321 69.7219 116.905 72.5129 115.932C76.0489 114.7 78.6161 112.187 81.2095 108.924C83.4855 106.06 85.2988 103.615 88.6442 104.777C91.4731 105.76 94.7586 108.417 97.6663 106.478C99.4052 105.319 99.777 104.259 99.3922 103.327Z" fill="white"/>
<path d="M77.3461 108.673C79.194 108.579 76.256 105.416 75.5646 105.096C72.6646 103.769 71.4052 106.358 69.2839 108.165C68.5849 108.761 67.6449 108.514 67.0014 109.242C66.1228 110.235 65.7517 111.857 66.2801 113.302C67.2714 116.008 74.3422 115.359 75.8317 113.149C76.4239 112.272 76.7122 110.948 76.9909 109.855C77.1426 109.26 77.1432 109.367 77.1868 108.673C77.1938 108.534 77.084 108.248 77.1881 108.25C77.3065 108.251 77.227 108.68 77.3461 108.673Z" fill="#DF7032"/>
<path opacity="0.2" d="M67.8347 114.286C68.0778 108.431 74.6076 104.265 77.9377 108.076C77.81 107.12 76.0751 105.332 75.5643 105.096C72.6642 103.769 71.4049 106.358 69.2836 108.165C68.5846 108.761 67.6445 108.514 67.001 109.242C66.1225 110.235 65.7513 111.857 66.2798 113.302C66.5129 113.939 67.0852 114.388 67.8394 114.676C67.8324 114.548 67.8291 114.419 67.8347 114.286Z" fill="#2D0C09"/>
<path d="M54.4037 110.974C54.4586 111.281 53.9076 109.124 53.7213 108.678C53.0127 106.983 52.053 105.925 51.0903 104.498C49.1103 101.56 43.9982 96.7064 40.9435 98.712C40.002 99.3308 39.9448 101.381 39.9711 102.515C39.9954 103.646 40.7044 106.075 41.399 106.852C42.0242 107.554 43.4754 108.507 43.4671 109.925C43.4528 112.563 38.4102 110.777 38.8877 114.619C38.9342 115.01 39.1594 116.098 39.3825 116.404C39.6672 116.791 40.0795 116.964 40.4533 117.177C41.5434 117.807 42.7295 117.602 43.8635 117.892C46.9877 118.688 48.819 120.546 52.0812 118.404C53.323 117.589 53.9993 114.618 54.3897 113.091C54.5327 112.541 54.28 110.255 54.4037 110.974Z" fill="#CB3E1F"/>
<path opacity="0.2" d="M49.7082 118.349C47.9049 117.749 45.9459 117.316 44.215 116.395C42.3491 115.401 42.6823 112.295 44.201 111.153C44.2526 111.114 44.7647 110.668 45.1714 110.31C44.8136 109.684 44.3912 108.602 44.1924 108.228C43.236 106.432 42.3142 104.605 41.5939 102.612C41.1689 101.436 40.864 100.158 40.7243 98.9036C39.995 99.6769 39.9468 101.478 39.9711 102.516C39.9957 103.647 40.7044 106.076 41.3994 106.853C42.0245 107.554 43.4757 108.508 43.4674 109.926C43.4531 112.564 38.4105 110.778 38.888 114.62C38.9346 115.011 39.1597 116.099 39.3828 116.405C39.6675 116.792 40.0798 116.965 40.4536 117.178C41.5437 117.808 42.7299 117.603 43.8638 117.893C46.713 118.619 48.4901 120.218 51.2549 118.871C50.7667 118.724 50.2566 118.531 49.7082 118.349Z" fill="#2D0C09"/>
<path d="M76.0561 128.825C75.2138 127.677 73.9761 127.296 72.8418 126.927C70.8502 126.277 67.2963 126.747 65.9342 129.142C64.5742 131.531 64.3068 135.483 61.9062 136.638C60.1341 137.492 58.9389 135.805 57.2955 135.235C55.7791 134.709 53.722 134.981 52.2356 135.603C51.227 136.026 49.6627 136.77 48.9949 137.942C48.5636 138.7 48.3285 139.629 47.8414 140.388C47.306 141.222 46.3516 142.854 47.2508 143.94C49.4299 146.578 52.0111 142.833 54.2704 144.184C56.7505 145.67 52.608 148.439 53.986 149.434C55.5949 150.598 58.6426 149.801 60.0652 148.396C61.2597 147.215 61.688 145.125 62.558 143.595C64.238 140.645 66.2485 137.859 68.1127 135.095C68.5889 134.388 69.1961 133.785 69.8935 133.504C71.2599 132.958 72.2263 134.293 73.4922 134.307C76.0023 134.332 78.2117 131.757 76.0561 128.825Z" fill="#DF7032"/>
<path opacity="0.3" d="M64.2872 133.413C64.9629 132.326 65.7118 131.322 66.5861 130.467C68.3957 128.698 70.4179 128.104 72.5745 128.966C74.0912 129.572 75.4496 130.538 76.9201 131.172C76.9165 130.451 76.6654 129.654 76.0562 128.825C75.2138 127.677 73.9761 127.296 72.8418 126.927C70.8502 126.277 67.2964 126.747 65.9343 129.141C65.2446 130.353 64.8352 131.966 64.2872 133.413Z" fill="white"/>
<path opacity="0.3" d="M49.5968 138.966C49.9257 138.487 50.2117 138.084 50.3188 137.981C51.3673 136.974 52.6545 136.571 53.9325 136.594C56.2034 136.637 58.1883 138.054 59.6681 140.229C60.0812 140.155 60.4982 140.097 60.9374 140.033C60.9394 140.032 60.9411 140.033 60.9431 140.033C61.1499 139.586 61.3421 139.16 61.5164 138.791C61.981 137.806 62.4439 136.815 62.9317 135.851C62.6367 136.175 62.3029 136.448 61.9061 136.639C60.134 137.493 58.9389 135.806 57.2955 135.236C55.7791 134.71 53.7216 134.982 52.2355 135.604C51.2269 136.027 49.6627 136.771 48.9949 137.943C48.7236 138.42 48.5293 138.965 48.3016 139.493C48.7192 139.271 49.1522 139.092 49.5968 138.966Z" fill="white"/>
<path d="M39.4371 139.155C40.015 137.201 36.9842 133.258 35.8719 132.634C32.5807 130.789 22.9926 127.499 21.0672 133.494C20.8573 134.148 21.2976 136.219 21.4286 136.632C22.1459 138.951 23.7764 139.835 25.3889 140.572C25.8681 140.791 26.5142 140.794 26.9009 141.268C28.847 143.617 26.6994 148.112 29.5729 149.429C30.4062 149.809 32.1208 149.094 32.8062 148.36C33.8989 147.19 33.9275 145.293 35.0452 144.147C36.23 142.933 38.0923 143.66 39.1025 142.328C39.6163 141.65 39.1976 139.962 39.4371 139.155Z" fill="#CB3E1F"/>
<path opacity="0.2" d="M39.1029 142.329C39.6163 141.65 39.1976 139.963 39.4371 139.156C39.5568 138.75 39.5155 138.258 39.3746 137.729C38.2705 137.412 37.099 137.406 36.109 137.973C34.8018 138.72 34.5806 141.47 33.6818 142.93C32.7759 144.401 30.4851 144.543 30.0378 142.309C29.4582 139.415 28.4862 137.877 26.6442 136.305C25.0021 134.903 23.525 133.509 22.251 131.538C21.7389 132.037 21.3302 132.677 21.0675 133.494C20.8577 134.149 21.298 136.22 21.429 136.632C22.1463 138.952 23.7767 139.836 25.3892 140.572C25.8684 140.791 26.5145 140.794 26.9013 141.268C28.8473 143.617 26.7001 148.112 29.5732 149.429C30.4066 149.809 32.1212 149.095 32.8065 148.361C33.8993 147.19 33.9279 145.294 35.0455 144.148C36.2304 142.933 38.0929 143.66 39.1029 142.329Z" fill="#2D0C09"/>
<path d="M37.2636 121.594C36.3122 122.152 35.9654 121.109 34.6116 121.014C33.3543 120.927 30.7491 122.649 31.7444 124.795C32.7384 126.948 37.8007 126.611 38.765 124.616C39.3011 123.509 38.6959 120.754 37.2636 121.594Z" fill="#CB3E1F"/>
<path d="M63.5915 102.936C62.8167 102.162 62.3455 102.178 61.163 101.894C59.0677 101.392 58.1089 103.909 59.6203 105.86C61.1909 107.887 66.7291 106.063 63.5915 102.936Z" fill="#CB3E1F"/>
<path d="M58.624 94.5855C59.4171 91.9562 59.463 88.9126 58.3437 86.4442C57.4904 84.5616 55.545 82.585 54.0712 81.6544C53.4996 81.2935 52.9047 81.3349 52.3676 80.8748C51.5246 80.1419 51.3916 78.0985 50.812 77.0427C49.3717 74.4326 45.5512 76.8618 44.2386 78.5876C41.3146 82.4322 44.9489 85.0686 47.3326 87.4033C48.158 88.2119 49.3335 89.2517 49.7335 90.6296C50.2447 92.3883 48.9497 94.5908 49.3099 95.9335C49.3704 96.1589 51.7291 99.2443 51.9955 99.5504C53.7829 101.602 54.2814 100.919 56.1602 99.0042C57.2317 97.9128 58.0943 96.3416 58.624 94.5855Z" fill="#DF7032"/>
<path opacity="0.2" d="M58.624 94.5855C58.6715 94.4282 58.7161 94.2687 58.758 94.1088C56.9749 97.4455 53.6106 96.6512 52.5105 92.9287C52.058 91.3967 52.1654 89.4771 51.616 88.0279C50.9809 86.3529 49.3607 84.9986 48.3135 83.819C46.9797 82.3168 44.9549 81.4348 43.4272 79.9932C42.2167 83.0955 45.2508 85.3644 47.3322 87.4029C48.1576 88.2115 49.3331 89.2512 49.7332 90.6291C50.2443 92.3879 48.9494 94.5904 49.3095 95.9331C49.37 96.1585 51.7287 99.2439 51.9951 99.55C53.7825 101.601 54.281 100.919 56.1599 99.0038C57.2316 97.9128 58.0942 96.3416 58.624 94.5855Z" fill="#2D0C09"/>
<path d="M20.1786 78.9909C20.454 79.1695 20.7649 79.4047 21.1174 79.705C22.5227 80.9024 25.8631 85.9734 26.0144 88.0507C26.0736 88.8606 25.7899 89.5912 25.5608 90.2469C24.0653 94.4991 20.8613 91.7959 19.0829 94.9214C17.6187 97.4932 17.3896 101.051 14.3129 99.1085C11.7105 97.4643 7.72196 92.2899 11.339 88.8236C13.1294 87.1085 15.2015 88.3661 16.918 86.4269C19.0453 84.0244 16.5792 76.6561 20.1786 78.9909Z" fill="#DF7032"/>
<path opacity="0.2" d="M16.2802 88.8347C17.4817 87.7807 20.1217 87.6725 20.0918 85.8941C20.0765 84.988 19.5488 83.9745 19.4184 83.0626C19.2169 81.6539 19.3313 80.3932 19.7197 79.0608C19.7493 78.9597 19.7862 78.8732 19.8205 78.7819C16.7501 77.175 18.9702 84.1099 16.9184 86.4278C15.2015 88.367 13.1297 87.1094 11.3393 88.8245C7.72229 92.2903 11.7108 97.4647 14.3133 99.1094C15.9879 100.167 16.8186 99.5932 17.4644 98.4372C14.0948 97.9926 13.5115 91.2639 16.2802 88.8347Z" fill="#2D0C09"/>
<path d="M9.0382 98.2465C11.1392 97.9351 7.50884 97.6001 6.91792 98.2679C5.05569 100.372 6.73269 101.725 6.82082 104.028C6.90029 106.12 5.61469 107.948 8.44095 108.449C12.7583 109.221 12.9742 101.313 10.7781 98.0536C10.236 97.2491 7.95012 98.4078 9.0382 98.2465Z" fill="#CB3E1F"/>
<path d="M31.2353 114.581C31.3224 114.758 31.6307 115.177 31.612 114.967C31.5588 114.336 31.2938 113.771 31.1172 113.182C30.7963 112.122 30.3012 111.443 29.6777 110.541C28.4453 108.755 26.5175 106.968 25.0277 105.576C21.3156 102.119 12.625 102.16 10.6543 108.474C10.3956 109.3 10.075 109.816 10.071 110.756C10.0567 113.358 12.6509 115.236 14.2767 115.801C16.6593 116.623 19.1331 116.134 21.547 116.302C24.1402 116.48 26.3922 118.287 28.9976 118.583C29.5613 118.647 31.1472 118.878 31.2163 117.759C31.2768 116.784 31.2436 115.603 31.1728 114.623C31.1472 114.304 30.9197 113.38 30.9869 113.691C31.0544 113.993 31.1036 114.317 31.2353 114.581Z" fill="#CB3E1F"/>
<path opacity="0.2" d="M31.216 117.759C31.2765 116.784 31.2433 115.603 31.1724 114.622C31.1648 114.528 31.1392 114.381 31.1092 114.228C31.1425 114.352 31.1811 114.472 31.2356 114.581C31.3227 114.757 31.631 115.176 31.6124 114.967C31.5592 114.336 31.2941 113.771 31.1176 113.182C31.0514 112.964 30.9762 112.765 30.8961 112.574C28.9996 113.476 26.7516 112.885 24.9423 111.927C23.7877 111.316 22.953 110.059 21.8616 109.408C20.5181 108.607 19.177 110.769 17.7574 111.214C15.7562 111.84 13.173 111.987 11.4115 110.329C11.0391 109.978 10.7192 109.537 10.4565 109.042C10.2563 109.581 10.0744 110.049 10.071 110.755C10.0567 113.358 12.6509 115.236 14.2767 115.801C16.6593 116.623 19.1331 116.133 21.547 116.301C24.1402 116.479 26.3921 118.287 28.9976 118.583C29.5606 118.646 31.1465 118.877 31.216 117.759Z" fill="#2D0C09"/>
<path d="M79.6113 89.0418C79.2458 89.0819 79.2106 88.1718 78.8893 87.9343C77.9207 87.2051 72.7244 85.9662 71.8062 87.9432C71.3892 88.8409 71.5236 89.9403 71.1581 90.9004C70.8432 91.7267 68.7824 91.4795 68.9973 92.3201C70.0887 96.5611 74.983 94.527 77.4621 94.3564C78.3975 94.2936 79.2445 95.0157 80.1773 94.8955C80.9671 94.7934 82.8848 94.687 83.2855 93.4868C83.9456 91.5058 80.8746 88.909 79.6113 89.0418Z" fill="#DF7032"/>
<path d="M95.8876 112.217C96.3418 109.083 93.2615 107.815 91.8655 107.896C90.8609 107.954 89.2075 108.243 88.3765 109.132C87.5268 110.042 87.6898 111.562 86.9648 112.591C85.659 114.446 81.5155 115.099 82.6245 119.238C83.9617 124.214 89.6983 121.902 91.5479 118.653C91.9383 117.966 92.0371 116.898 92.5721 116.293C93.593 115.139 95.4789 117.614 96.4961 115.827C97.1133 114.744 95.7333 113.277 95.8876 112.217Z" fill="#CB3E1F"/>
<path opacity="0.2" d="M96.4965 115.827C97.0009 114.941 96.1696 113.798 95.9351 112.831C94.6748 113.544 93.3736 113.509 92.0068 113.063C91.4428 112.879 90.9211 112.738 90.3514 112.651C90.3252 112.647 90.3002 112.647 90.276 112.649C90.2497 112.677 90.2251 112.702 90.2031 112.723C90.1955 112.738 90.1895 112.752 90.1805 112.77C90.0392 113.055 89.8836 113.346 89.7176 113.639C89.6308 114.822 89.0672 115.945 88.0493 116.174C87.2571 117.231 86.4055 118.201 85.6174 118.928C84.7345 119.742 83.7379 120.089 82.8593 119.923C84.5266 123.977 89.7908 121.741 91.5486 118.653C91.939 117.966 92.0378 116.898 92.5728 116.293C93.5934 115.14 95.4792 117.615 96.4965 115.827Z" fill="#2D0C09"/>
<path opacity="0.3" d="M26.5757 76.8025C29.0368 75.5881 29.8492 72.4332 31.9516 70.9635C34.1743 69.4092 35.5241 73.3353 37.5772 73.1388C39.0939 72.9936 38.924 71.7249 39.9721 71.0865C41.5647 70.1171 42.3458 70.3167 44.1292 70.2436C45.9213 70.1706 47.3858 68.8381 48.8959 68.6666C51.3291 68.39 54.8254 70.0146 56.9966 71.2878C59.5182 72.7664 60.3978 74.4517 62.1257 76.8867C63.7013 79.1075 73.3822 84.5121 70.5546 88.8221C68.8616 87.5904 67.6575 86.8914 66.4151 84.8863C65.2945 83.0776 64.7883 81.2698 63.3567 79.7899C60.587 76.9268 57.4824 76.1998 54.2099 74.8531C51.0587 73.5563 48.3176 75.1832 45.0371 74.7061C41.8789 74.2468 40.7436 76.1779 37.9396 77.8997C34.8274 79.8104 32.7277 79.7498 29.3132 79.4496C29.0322 79.4251 21.0845 80.3414 21.8037 79.2491C23.0142 77.4106 24.7088 77.5861 26.3047 76.925C26.3971 76.8867 26.4876 76.8457 26.5757 76.8025Z" fill="white"/>
<path d="M69.5477 81.5247C64.3833 80.6204 60.6322 71.4523 55.4133 69.4387C51.4351 67.904 46.2744 67.9303 42.4486 70.1809C43.5935 70.969 45.3955 69.8766 46.6948 69.8129C48.3295 69.7332 49.966 70.0914 51.6051 70.2054C55.5201 70.478 58.2313 71.8533 61.0845 75.6417C63.1536 78.389 65.8691 81.7747 68.7373 82.8527C71.4827 83.8849 74.4869 83.8965 77.2596 84.6423C75.8852 83.7522 74.4274 82.7463 72.9153 82.1863C71.6204 81.7061 70.1851 82.0549 69.5477 81.5247Z" fill="white"/>
<path d="M72.0094 98.617C69.6547 97.1287 61.9398 81.6917 62.4243 91.2928C62.5237 93.2623 63.2955 96.0658 62.1004 97.7439C60.9571 99.349 57.5881 98.0972 58.2605 100.603C59.0084 103.39 61.5693 100.92 62.6095 99.9891C64.4355 98.3546 64.9938 97.1461 67.3628 97.7648C69.3561 98.2856 70.8695 100.076 72.7979 101.005C75.2733 102.198 76.7382 101.437 79.1524 100.623C76.81 99.4256 73.588 99.6474 72.0094 98.617Z" fill="white"/>
<path opacity="0.3" d="M41.1812 88.6106C40.1391 86.0673 32.4294 83.9927 30.7574 86.585C29.5124 88.5153 31.6363 89.6428 31.1508 91.3806C30.6932 93.0196 28.2717 93.4495 27.284 93.9395C25.8594 94.6465 20.5178 97.0655 20.8909 100.049C21.2437 102.871 29.2986 101.023 31.4059 103.145C32.6 104.347 31.6756 105.642 33.4976 105.384C35.7904 105.059 35.7156 101.205 36.1137 99.1036C36.9919 94.467 38.5113 92.8093 42.1998 93.9453C43.8093 94.4411 47.3901 96.2493 46.1966 91.7023C45.5438 89.2156 43.0109 88.5736 41.3518 88.3242C41.2647 87.9918 41.4566 87.9473 41.1812 88.6106Z" fill="white"/>
<path d="M4.65996 107.349C7.06456 113.524 10.1662 115.005 14.8214 116.966C17.1439 117.945 18.9808 118.851 21.4842 118.986C23.1546 119.076 25.5119 118.492 26.9568 119.702C24.0927 119.495 21.2478 119.429 18.355 119.563C15.831 119.679 13.9824 118.324 11.5273 117.381C8.17193 116.094 4.09963 112.566 4.65996 107.349Z" fill="white"/>
<path d="M48.1662 138.815C50.37 132.723 56.9347 132.645 60.8091 136.012C59.5195 137.966 57.8359 136.284 56.3022 136.194C54.5141 136.09 47.4193 138.533 46.7636 141.388C47.1161 139.855 48.1819 138.153 48.1662 138.815Z" fill="white"/>
<path d="M94.8736 111.232C95.4765 108.814 93.1274 107.321 91.6373 107.447C88.7815 107.689 86.6582 111.546 84.3261 113.31C84.1219 113.465 84.1924 113.934 84.4415 113.921C88.2185 113.736 91.1698 105.445 94.4795 111.362C94.5933 111.566 94.8234 111.434 94.8736 111.232Z" fill="white"/>
<path d="M99.7298 88.9109C99.7427 88.8881 99.7141 88.857 99.7005 88.8792C98.1449 91.4198 96.1303 92.5723 93.8754 93.6513C93.7799 93.6971 93.7793 93.9257 93.8987 93.9096C96.3206 93.584 98.2849 91.4136 99.7298 88.9109Z" fill="white"/>
<path d="M88.8188 90.9173C87.8055 90.5284 86.7401 90.3827 85.7005 90.1658C85.5323 90.1306 85.4515 90.4674 85.6257 90.5155C86.6679 90.8037 87.7158 91.1695 88.7789 91.2826C88.9375 91.2991 88.9668 90.9739 88.8188 90.9173Z" fill="white"/>
<path d="M51.1215 106.604C48.821 102.715 45.9575 100.382 42.3833 99.1798C42.2407 99.1317 42.1828 99.4083 42.3208 99.4729C45.5541 100.976 48.5237 103.611 50.93 106.85C51.0524 107.015 51.226 106.781 51.1215 106.604Z" fill="white"/>
<path d="M73.8514 106.465C72.9705 106.978 71.9932 107.382 71.2829 108.277C71.1698 108.42 71.2799 108.665 71.4252 108.621C72.3753 108.334 73.174 107.473 73.9834 106.783C74.1324 106.656 74.0104 106.372 73.8514 106.465Z" fill="white"/>
<path d="M23.7538 89.1412C25.2239 86.1654 23.6597 82.1574 21.712 80.3875C21.545 80.236 21.3355 80.5759 21.4878 80.7603C23.3544 83.0154 23.4206 85.8892 23.3963 89.004C23.3946 89.2651 23.6507 89.3497 23.7538 89.1412Z" fill="white"/>
<path d="M34.8756 71.4571C31.5213 70.9765 28.2877 73.2391 26.5811 77.0983C26.5012 77.2792 26.6875 77.4966 26.8005 77.3353C28.9993 74.1996 31.6882 72.4488 34.8716 71.9735C35.1164 71.9369 35.1264 71.4932 34.8756 71.4571Z" fill="white"/>
<path d="M35.5118 136.853C34.4639 134.703 32.9173 133.257 31.1395 132.326C29.6803 131.562 27.2029 130.586 25.7766 131.861C25.75 131.885 25.756 131.931 25.7839 131.947C27.1886 132.754 28.9185 132.445 30.4083 133.156C32.2176 134.02 33.6954 135.561 35.133 137.227C35.3216 137.444 35.6701 137.178 35.5118 136.853Z" fill="white"/>
<path opacity="0.3" d="M114.2 92.6186C114.515 92.5852 114.841 92.5424 115.181 92.3905C117.523 91.3405 120.72 88.1232 122.425 85.7612C124.147 83.3774 126.942 82.1613 123.911 85.771C122.576 87.3605 121.902 87.9459 121.151 89.931C120.7 91.1213 120.753 92.1539 119.996 93.4209C118.224 96.3896 114.307 96.669 112.823 93.0578C113.264 92.6983 113.72 92.6694 114.2 92.6186Z" fill="white"/>
<path d="M137.32 83.1119C137.151 80.9438 134.421 79.8247 133.092 79.5298C131.282 79.128 129.021 79.3311 127.726 81.2672C127.584 81.4788 127.71 81.8035 127.925 81.747C129.709 81.2774 131.323 80.5 133.173 80.9767C133.997 81.1892 134.772 81.5781 135.513 82.1056C136.079 82.5083 136.585 83.1511 137.234 83.2251C137.276 83.23 137.325 83.1703 137.32 83.1119Z" fill="white"/>
<path d="M122.29 86.2242C122.333 86.16 122.267 86.0647 122.22 86.1261C119.41 89.7965 116.035 91.5998 112.343 93.0187C112.068 93.1243 112.094 93.7613 112.406 93.7186C116.37 93.1737 119.707 90.0985 122.29 86.2242Z" fill="white"/>
<path d="M111.149 6.90455C108.418 3.20479 106.082 -1.45899 101.026 0.436994C95.97 2.32763 91.0514 10.8373 91.9672 17.083C92.8827 23.3341 92.3357 34.4004 90.6849 37.6181C89.0345 40.8412 85.4484 49.1343 85.4484 49.1343L99.4943 59.2041C99.4943 59.2041 101.545 46.8107 105.09 41.5994C108.635 36.3881 116.124 29.9424 117.888 25.9829C119.653 22.0176 120.171 17.7116 118.998 13.1342C117.826 8.55686 114.11 10.9184 111.149 6.90455Z" fill="#E85123"/>
<path opacity="0.2" d="M104.825 6.1833C106.105 9.15113 108.21 7.79952 110.103 6.69695C110.313 6.57489 110.526 6.4555 110.741 6.34145C108.446 3.13039 106.323 -0.501648 102.461 0.0605547C103.47 1.95075 103.931 4.11091 104.825 6.1833Z" fill="#4A170E"/>
<path opacity="0.2" d="M118.998 13.1342C118.771 12.2459 118.446 11.6213 118.051 11.1584C118.107 12.0837 118.045 13.0348 117.87 13.9512C116.763 19.7505 112.856 24.0067 109.222 26.9366C106.688 28.981 106.047 31.7029 104.595 34.8921C103.404 37.5058 101.722 39.0342 99.5625 39.9372C96.5995 41.1757 92.6663 41.39 90.0392 38.9291C88.2488 42.6596 85.4488 49.1343 85.4488 49.1343L99.4947 59.204C99.4947 59.204 101.545 46.8102 105.09 41.5993C108.635 36.3885 116.124 29.9423 117.889 25.9829C119.653 22.0176 120.171 17.7111 118.998 13.1342Z" fill="#4A170E"/>
<path opacity="0.3" d="M102.111 6.05402C101.377 4.90022 100.295 5.4201 99.4487 5.99433C98.1306 6.89332 96.2051 13.1444 97.5533 14.5637C99.2273 16.3296 101.395 12.4565 102.67 11.3352C103.369 10.7178 104.168 11.4925 104.862 11.1673C105.205 11.0047 105.743 10.1708 105.673 9.65042C105.458 8.04757 102.857 7.22431 102.111 6.05402Z" fill="white"/>
<path opacity="0.3" d="M114.308 16.866C110.936 17.4888 107.311 16.747 104.714 19.6338C103.751 20.7061 104.022 22.5535 103.613 23.9728C102.877 26.5295 102.012 28.8371 100.919 31.1607C100.522 32.0058 99.2509 33.6688 99.3503 34.7901C99.4424 35.8303 100.376 36.5939 101.118 36.437C102.069 36.2366 104.08 33.03 104.965 32.082C105.924 31.0583 107.051 29.3681 108.224 28.7288C110.628 27.4235 112.919 25.9227 114.682 23.3554C116.077 21.324 116.609 16.449 114.308 16.866Z" fill="white"/>
<path d="M93.6379 44.2372C92.6616 44.1668 92.0999 44.3022 91.2144 43.5707C89.9131 42.498 90.7272 40.7918 90.4286 39.2914C90.1123 37.6988 88.8064 35.2936 87.3083 36.1062C84.9892 37.3682 81.4826 41.3985 80.6422 44.7134C80.295 46.0837 80.6891 47.1889 80.6256 48.5757C80.5568 50.0761 79.1455 53.1473 78.4368 54.3555C76.5623 57.546 73.3659 58.6673 70.9483 60.8016C69.0818 62.4428 68.4875 65.2761 66.8162 67.0095C65.3576 68.521 64.0557 69.3821 62.3914 70.4277C60.588 71.5708 58.8312 73.3309 56.9118 74.1381C54.0988 75.3191 50.6879 74.7502 47.9448 76.1152C45.2449 77.453 44.376 81.1964 42.3378 83.4657C41.2092 84.7171 39.2392 84.5923 37.9463 85.7301C36.41 87.0897 33.7403 92.0894 33.6632 94.8033C33.6229 96.2333 34.16 98.0807 33.6708 99.4457C33.1411 100.925 31.772 101.78 30.9653 102.956C30.1808 104.099 28.2467 109.348 28.2956 110.924C28.3621 113.053 29.2826 115.051 29.3498 117.207C29.3903 118.502 28.9461 121.411 28.5221 122.592C27.7752 124.672 25.7058 122.429 24.6397 122.489C23.392 122.554 22.4981 123.832 22.0485 125.251C20.6668 129.623 24.3168 131.676 25.4447 135.088C26.0174 136.821 24.9735 137.802 25.0656 139.432C25.1418 140.787 26.6106 140.619 26.8577 141.859C27.1018 143.089 26.3429 143.944 25.9569 144.903C25.2356 146.691 25.1737 149.095 25.5974 150.991C25.9761 152.687 26.8205 154.252 27.6295 155.612C28.3681 156.858 28.8829 158.358 29.6092 159.642C30.7265 161.619 32.0454 163.277 33.2462 165.097C34.43 166.89 36.6464 167.274 37.8326 169.067C39.2415 171.202 41.0153 173.818 42.9936 174.945C44.6673 175.893 46.5967 176.131 48.3671 176.618C52.3719 177.723 55.1939 178.563 59.2602 178.081C61.434 177.821 63.8366 179.338 65.9412 178.763C67.3346 178.384 69.4562 178.032 70.6633 177.166C71.6068 176.488 72.5721 174.527 73.5604 174.289C75.012 173.942 76.394 175.167 77.8825 175.291C79.3147 175.41 81.5697 173.801 82.7472 172.767C83.5406 172.062 84.8525 169.652 85.2898 168.439C85.8777 166.798 85.4963 164.756 86.6433 163.396C87.5415 162.329 88.6884 162.242 89.4828 160.888C90.5639 159.052 90.6138 156.603 91.4515 154.664C92.2412 152.838 93.4833 151.706 93.9698 149.556C94.4786 147.303 94.2904 143.792 95.1686 141.761C95.5221 140.944 96.4944 141.236 97.0588 140.738C98.1522 139.774 99.5824 136.534 99.8298 134.925C100.411 131.15 98.7803 126.99 99.0494 123.106C99.2083 120.809 100.11 118.897 100.741 116.8C101.44 114.477 101.846 112.082 101.993 109.601C102.182 106.384 100.87 103.984 100.421 101.043C100.199 99.5909 100.402 98.2206 100.357 96.7688C100.284 94.4451 99.6832 92.17 99.6935 89.8192C99.7071 86.634 99.8069 83.4492 100.289 80.3126C100.465 79.1694 101.241 78.7796 101.3 77.4957C101.446 74.327 99.8248 70.7302 100.789 67.6804C101.652 64.9504 103.125 62.5399 103.902 59.642C104.375 57.8815 103.75 55.2273 104.539 53.6293C104.981 52.7303 105.507 51.8037 105.439 50.5907C105.349 48.9762 104.372 47.6874 103.765 46.4521C102.672 44.226 98.5705 43.2508 96.7342 43.3538C95.827 43.4032 94.5035 44.3022 93.6379 44.2372Z" fill="#FC8838"/>
<path opacity="0.2" d="M105.439 50.591C105.349 48.9766 104.372 47.6878 103.765 46.4525C102.672 44.2264 98.5705 43.2512 96.7342 43.3541C95.8267 43.4027 94.5035 44.3021 93.6376 44.2371C92.6613 44.1667 92.0996 44.3021 91.214 43.5711C89.9128 42.4984 90.7269 40.7922 90.4282 39.2918C90.2789 38.5393 89.9065 37.6083 89.3994 36.9182C88.1128 37.9246 86.7247 39.5016 86.6592 41.6257C86.595 43.7034 87.7702 44.7779 89.1134 45.1441C91.6171 45.8266 94.8567 45.3882 96.6527 48.3035C98.9619 52.0513 96.9135 57.7919 95.3196 61.3281C94.1441 63.9369 93.8491 65.1353 93.8128 68.4283C93.7789 71.5097 94.4287 74.6254 94.3107 77.6627C94.1198 82.5729 92.5778 87.3806 92.1112 92.3727C91.8558 95.1057 92.3876 95.0946 93.1052 97.028C94.6169 101.102 91.913 101.077 90.2799 104.326C88.6518 107.565 89.6498 111.61 90.0674 114.953C90.4186 117.764 90.2979 120.604 90.5909 123.429C90.9467 126.861 90.9024 126.616 88.7479 126.671C86.5631 126.726 86.3081 126.008 84.6942 128.248C83.694 129.636 80.8358 133.446 81.3725 135.194C81.987 137.196 85.2093 137.177 82.5134 140.478C80.9059 142.447 77.8003 142.064 75.9295 143.136C74.848 143.756 73.5751 145.382 73.0849 146.852C71.9373 150.292 73.8714 150.743 74.709 153.672C76.3671 159.469 71.2616 154.263 68.9335 154.114C66.7713 153.976 62.4945 154.589 62.4665 158.492C61.3186 158.759 59.627 161.959 58.6064 163.063C57.7282 164.013 57.1529 164.941 56.1263 165.786C55.002 166.711 52.7304 168.665 51.5446 169.092C49.4053 169.863 47.6841 168.101 45.7301 167.284C41.6405 165.573 37.3358 166.567 33.2275 165.07C33.2335 165.079 33.2402 165.087 33.2462 165.097C34.43 166.89 36.6464 167.274 37.8326 169.067C39.2415 171.202 41.015 173.818 42.9936 174.945C44.6673 175.893 46.5967 176.131 48.3668 176.618C52.3716 177.723 55.1935 178.563 59.2598 178.081C61.4337 177.821 63.8363 179.338 65.9409 178.763C67.3343 178.384 69.4559 178.032 70.663 177.165C71.6064 176.488 72.5718 174.527 73.5601 174.289C75.0116 173.942 76.3937 175.167 77.8821 175.291C79.3144 175.41 81.5694 173.802 82.7469 172.767C83.5403 172.063 84.8522 169.652 85.2895 168.439C85.8774 166.798 85.496 164.756 86.6429 163.396C87.5411 162.329 88.6881 162.243 89.4825 160.888C90.5636 159.052 90.6135 156.604 91.4511 154.664C92.2409 152.839 93.483 151.707 93.9695 149.556C94.4783 147.303 94.29 143.793 95.1683 141.762C95.5218 140.944 96.4941 141.236 97.0584 140.738C98.1518 139.774 99.5821 136.535 99.8295 134.926C100.41 131.15 98.78 126.99 99.049 123.106C99.208 120.809 100.11 118.897 100.74 116.801C101.439 114.477 101.846 112.083 101.992 109.602C102.182 106.384 100.869 103.985 100.421 101.043C100.199 99.5913 100.401 98.221 100.356 96.7692C100.283 94.4455 99.6829 92.1704 99.6932 89.8196C99.7068 86.6344 99.8066 83.4496 100.289 80.3129C100.465 79.1698 101.241 78.78 101.3 77.4961C101.445 74.3274 99.8245 70.7305 100.788 67.6807C101.652 64.9508 103.125 62.5403 103.902 59.6424C104.375 57.8819 103.75 55.2277 104.538 53.6297C104.981 52.7307 105.507 51.8045 105.439 50.591Z" fill="#4A170E"/>
<path opacity="0.2" d="M105.439 50.5911C105.349 48.9766 104.372 47.6879 103.765 46.4525C103.089 45.076 101.263 44.1788 99.5331 43.7181C99.864 44.0576 100.177 44.4158 100.452 44.8091C100.781 45.1085 101.02 45.5518 101.16 46.0592C101.85 47.5894 102.091 49.4743 101.586 51.8282C101.585 51.8362 101.582 51.8433 101.581 51.8514C101.619 59.5534 97.2646 65.7777 97.7158 73.4966C97.9755 77.9421 97.3045 82.0682 96.3753 86.139C96.5942 88.4489 96.3261 90.6607 96.1855 93.0757C96.0937 94.6518 96.2536 94.9316 96.801 96.1402C97.1651 96.9443 97.3341 97.8593 97.3347 98.7948C97.3354 99.7963 97.1568 100.799 96.9397 101.783C97.7005 103.781 97.8551 106.146 97.7208 108.462C97.7255 108.498 97.7334 108.533 97.7378 108.569C97.8176 109.218 97.7391 109.978 97.5179 110.633C97.5136 110.666 97.5103 110.7 97.506 110.734C97.2416 112.789 96.6773 114.726 96.362 116.758C95.9251 119.574 96.4305 122.5 96.255 125.348C95.9653 130.041 94.2494 132.646 92.2685 136.302C90.1259 140.257 89.363 145.743 87.9291 150.219C85.4121 158.075 82.0066 166.017 75.3967 168.197C72.3662 169.196 69.1609 168.976 66.1843 170.246C62.8775 171.657 59.7313 174.222 56.1422 173.977C52.6176 173.736 49.1638 172.183 45.748 171.129C42.3454 170.079 39.1224 167.551 35.6677 166.842C35.4442 166.804 35.2204 166.767 34.9966 166.729C36.0142 167.409 37.1122 167.979 37.8322 169.067C39.2411 171.201 41.0146 173.818 42.9932 174.944C44.6669 175.892 46.5963 176.131 48.3664 176.618C52.3712 177.723 55.1931 178.563 59.2594 178.081C61.4333 177.82 63.8359 179.337 65.9405 178.763C67.3339 178.384 69.4555 178.032 70.6626 177.165C71.606 176.488 72.5714 174.527 73.5597 174.289C75.0112 173.942 76.3933 175.166 77.8817 175.291C79.314 175.41 81.569 173.801 82.7465 172.767C83.5399 172.062 84.8518 169.652 85.2891 168.439C85.877 166.798 85.4956 164.756 86.6425 163.396C87.5407 162.329 88.6877 162.242 89.4821 160.888C90.5632 159.052 90.6131 156.603 91.4507 154.664C92.2405 152.838 93.4826 151.706 93.9691 149.556C94.4779 147.303 94.2896 143.792 95.1679 141.761C95.5214 140.944 96.4937 141.236 97.058 140.738C98.1514 139.774 99.5817 136.534 99.8291 134.925C100.41 131.15 98.7796 126.99 99.0486 123.106C99.2076 120.809 100.11 118.897 100.74 116.8C101.439 114.477 101.845 112.082 101.992 109.601C102.181 106.384 100.869 103.984 100.42 101.043C100.199 99.5909 100.401 98.2206 100.356 96.7687C100.283 94.4451 99.6824 92.17 99.6928 89.8192C99.7064 86.634 99.8062 83.4492 100.289 80.3125C100.464 79.1694 101.24 78.7796 101.3 77.4957C101.445 74.327 99.8241 70.7301 100.788 67.6803C101.651 64.9504 103.125 62.5399 103.901 59.642C104.375 57.8815 103.749 55.2273 104.538 53.6293C104.981 52.7308 105.507 51.8046 105.439 50.5911Z" fill="#4A170E"/>
<path opacity="0.3" d="M80.6423 44.7142C80.2951 46.0845 80.6892 47.1898 80.6257 48.5766C80.5569 50.077 79.1455 53.1481 78.4369 54.3563C76.5624 57.5469 73.366 58.6681 70.9484 60.8025C69.0819 62.4436 68.4876 65.2769 66.8163 67.0103C65.3577 68.5218 64.0558 69.3829 62.3915 70.4285C60.5881 71.5716 58.8313 73.3317 56.9119 74.139C54.0989 75.3199 50.688 74.751 47.9449 76.116C45.245 77.4538 44.3761 81.1968 42.3379 83.4665C41.2093 84.7179 39.2393 84.5932 37.9464 85.7309C36.41 87.0905 33.7404 92.0902 33.6633 94.8041C33.623 96.2341 34.1601 98.0811 33.6709 99.4465C33.1412 100.926 31.7721 101.781 30.9654 102.957C30.1809 104.1 28.2468 109.348 28.296 110.924C28.3622 113.053 29.283 115.052 29.3502 117.208C29.3908 118.503 28.9465 121.412 28.5225 122.592C27.7756 124.672 25.7062 122.43 24.6401 122.489C23.3924 122.554 22.4985 123.833 22.0489 125.252C20.6672 129.623 24.3172 131.676 25.4452 135.088C26.0178 136.822 24.974 137.802 25.0657 139.433C25.1419 140.787 26.6107 140.619 26.8578 141.859C27.1019 143.089 26.343 143.945 25.957 144.903C25.2357 146.691 25.1738 149.096 25.5975 150.992C25.9762 152.687 26.8206 154.253 27.6296 155.612C27.8617 156.004 28.0693 156.424 28.2708 156.851C29.2661 154.041 29.6392 149.508 30.145 147.947C30.7435 146.089 31.6005 145.163 31.3744 142.97C31.1399 140.667 29.3971 139.405 29.288 137.07C29.1424 133.907 31.2693 132.093 32.8705 134.692C33.2665 135.337 33.198 137.363 33.6184 138.278C33.8205 140.158 34.1883 142.075 34.7547 144.042C35.45 146.463 35.5268 150.331 37.2979 151.902C40.3952 154.643 42.0127 145.661 42.5504 143.099C43.3671 139.204 43.6704 135.467 43.9049 131.48C44.0465 129.086 44.6085 126.762 44.8509 124.389C45.3321 119.682 45.0571 115.457 47.5399 111.595C50.2408 107.386 53.9892 104.797 56.9611 101.037C63.1962 93.1558 69.872 85.1661 75.6542 76.7321C76.4912 75.5079 77.2836 74.2133 78.0236 72.8644C80.8824 67.6264 82.9525 61.5268 83.9391 55.3194C84.0282 54.7617 84.0928 54.2035 84.1453 53.6457C84.4566 50.0979 84.1047 46.5117 84.675 42.7795C84.9786 40.7832 85.7641 39.2962 84.9504 37.95C83.0888 39.7756 81.2246 42.4155 80.6423 44.7142Z" fill="white"/>
<path opacity="0.3" d="M91.5219 57.3072C89.7804 56.9451 86.1351 60.9041 84.8458 62.335C81.9045 65.6066 81.0226 70.2597 80.0207 74.9288C78.1691 83.5525 77.0857 91.9375 76.4685 100.837C76.253 103.947 75.408 107.029 75.0415 110.116C74.4855 114.791 74.5071 119.542 73.5933 124.222C72.7154 128.718 71.4085 133.273 70.0963 137.569C69.0255 141.074 67.4244 145.905 64.7826 147.709C62.0541 149.573 59.859 148.765 57.0135 148.467C55.7771 148.332 54.5125 148.922 53.294 149.177C50.4471 149.778 47.3292 149.968 44.6849 151.636C43.3254 152.495 39.8464 158.566 41.5806 160.459C42.6916 161.672 47.1354 157.095 48.5367 156.351C54.0416 153.431 60.0552 152.728 65.5495 149.784C71.7447 146.465 75.7754 140.379 77.8043 131.813C79.2279 125.804 78.9682 120.168 79.6785 114.067C80.0885 110.544 80.0493 107.258 80.1607 103.676C80.288 99.5958 81.3691 97.0454 82.5041 93.4935C83.9417 88.9937 84.0308 84.7366 83.6929 79.9918C83.3963 75.8278 83.0634 72.4096 85.7979 69.5781C88.1101 67.1836 91.6899 65.3304 92.3257 61.0631C92.7054 58.5136 92.3074 57.4707 91.5219 57.3072Z" fill="white"/>
<path d="M81.1786 83.9317C82.2547 81.9168 78.5887 83.092 77.9765 83.6283C75.4173 85.8869 76.1748 88.8066 75.9424 92.1598C75.8659 93.2646 75.145 94.1097 75.1802 95.2363C75.2284 96.7746 75.9587 98.1614 77.1352 98.4866C79.3393 99.0934 83.2852 91.2065 82.8932 88.2761C82.7379 87.1116 82.133 85.9956 81.6591 85.0316C81.4004 84.5059 81.4639 84.571 81.0808 84.1001C81.0033 84.0079 80.7672 83.9486 80.8321 83.8399C80.9052 83.7152 81.1097 84.0618 81.1786 83.9317Z" fill="#FC8838"/>
<path opacity="0.2" d="M78.6676 97.4419C75.3608 93.5996 76.9004 84.1325 81.1882 82.9386C80.5457 82.4883 78.4288 83.2318 77.9765 83.6283C75.4173 85.8869 76.1748 88.8066 75.9424 92.1597C75.8659 93.265 75.145 94.1096 75.1802 95.2367C75.2284 96.775 75.9587 98.1618 77.1352 98.487C77.6536 98.6295 78.2688 98.2985 78.901 97.6762C78.8212 97.6054 78.7427 97.5296 78.6676 97.4419Z" fill="#4A170E"/>
<path d="M68.4891 109.64C68.7043 109.77 67.0941 109.033 66.717 108.957C65.2828 108.67 64.0707 109.038 62.6391 109.185C59.6928 109.483 53.6981 111.926 53.0117 116.389C52.8005 117.765 53.9757 119.081 54.6611 119.748C55.3431 120.414 57.211 121.151 58.0952 120.891C58.8917 120.658 60.3429 119.705 61.1752 120.582C62.7235 122.213 58.5814 126.459 61.1416 128.306C61.4004 128.496 62.1805 128.924 62.4981 128.875C62.9005 128.81 63.2553 128.48 63.6101 128.214C64.6493 127.445 65.2545 126.064 66.1201 125.04C68.5024 122.218 70.7205 121.416 71.4537 116.649C71.7327 114.835 70.3939 112.3 69.7312 110.951C69.4934 110.463 67.9897 109.331 68.4891 109.64Z" fill="#E85123"/>
<path opacity="0.2" d="M69.967 119.129C68.5092 120.672 67.054 122.482 65.4501 123.75C63.7212 125.118 62.0921 122.863 62.3482 120.556C62.3568 120.477 62.4067 119.662 62.4446 119.012C61.856 119.007 60.9588 118.792 60.6166 118.774C58.9706 118.687 57.3281 118.545 55.711 118.088C54.7563 117.818 53.8155 117.358 52.9898 116.738C52.9998 117.984 54.0337 119.138 54.6608 119.748C55.3429 120.414 57.2107 121.151 58.095 120.891C58.8914 120.658 60.3426 119.705 61.175 120.582C62.7233 122.213 58.5811 126.459 61.1414 128.306C61.4001 128.496 62.1802 128.924 62.4978 128.875C62.9002 128.81 63.255 128.48 63.6098 128.215C64.649 127.445 65.2542 126.064 66.1198 125.041C68.2927 122.467 70.3245 121.564 71.2224 117.811C70.8366 118.238 70.4103 118.66 69.967 119.129Z" fill="#4A170E"/>
<path d="M92.2821 97.6361C91.0893 97.8254 90.1067 98.9035 89.1942 99.8786C87.5913 101.59 85.6925 105.642 86.2718 108.551C86.8491 111.454 89.0183 114.157 88.2301 117.408C87.6485 119.807 85.9216 120.04 84.5792 121.432C83.3398 122.716 82.2407 125.062 81.6984 127.017C81.3306 128.344 80.8115 130.456 81.0948 131.881C81.278 132.802 81.6824 133.62 81.832 134.6C81.9966 135.678 82.3751 137.688 83.5672 137.401C86.458 136.707 85.8282 131.681 88.009 130.115C90.4043 128.398 89.5028 134.481 90.9334 133.63C92.6054 132.639 94.0017 128.923 94.0429 126.556C94.0775 124.568 93.1065 122.835 92.7361 120.977C92.0231 117.391 91.6104 113.556 91.1202 109.889C90.9945 108.951 91.0102 107.939 91.2716 107.029C91.7857 105.247 93.1654 105.041 93.9482 103.708C95.4995 101.065 95.3325 97.1487 92.2821 97.6361Z" fill="#FC8838"/>
<path opacity="0.3" d="M87.7839 112.91C87.5561 111.529 87.4224 110.122 87.4533 108.672C87.5169 105.672 88.4044 103.166 90.2337 101.41C91.52 100.175 92.9223 99.328 94.1969 98.1586C93.7693 97.7207 93.1448 97.4984 92.2825 97.6365C91.0897 97.8258 90.107 98.9039 89.1945 99.879C87.5917 101.591 85.6929 105.643 86.2722 108.551C86.5645 110.023 87.2658 111.444 87.7839 112.91Z" fill="white"/>
<path opacity="0.3" d="M82.0668 131.87C81.9857 131.229 81.9225 130.679 81.9275 130.503C81.975 128.776 82.5251 127.165 83.3218 125.826C84.7371 123.447 86.7892 122.212 88.979 121.977C89.1878 121.493 89.409 121.017 89.6398 120.511C89.6407 120.509 89.6421 120.507 89.6431 120.506C89.5061 120.013 89.3727 119.549 89.2613 119.138C88.9647 118.043 88.6631 116.946 88.3931 115.839C88.4037 116.35 88.3605 116.871 88.2301 117.408C87.6488 119.807 85.9216 120.04 84.5792 121.432C83.3398 122.716 82.2407 125.062 81.6984 127.017C81.3306 128.344 80.8115 130.456 81.0948 131.881C81.2102 132.461 81.413 133 81.5846 133.564C81.7097 132.987 81.8689 132.418 82.0668 131.87Z" fill="white"/>
<path d="M75.9581 142.747C75.1583 140.938 70.9756 141.734 69.9265 142.531C66.8222 144.887 59.0101 153.029 61.3692 158.738C61.6269 159.361 63.1187 160.163 63.4426 160.276C65.2509 160.937 66.7706 159.751 68.1929 158.494C68.6156 158.12 69.013 157.438 69.5294 157.319C72.1069 156.696 73.4454 161.723 75.982 159.486C76.7166 158.836 77.3448 156.582 77.3315 155.407C77.3095 153.532 76.2078 152.341 76.2158 150.456C76.2245 148.457 77.7937 146.929 77.6261 145.044C77.5403 144.085 76.2876 143.495 75.9581 142.747Z" fill="#E85123"/>
<path opacity="0.2" d="M77.6261 145.044C77.5403 144.086 76.2876 143.495 75.9581 142.747C75.7921 142.372 75.4762 142.114 75.0778 141.94C74.2146 142.915 73.4943 144.153 73.2222 145.548C72.8631 147.39 74.3506 149.308 74.6618 151.154C74.9754 153.014 73.6569 155.528 72.0643 154.634C70.0016 153.476 68.4985 153.564 66.4424 154.552C64.6094 155.432 62.8825 156.144 60.9395 156.286C60.9205 157.135 61.0476 157.959 61.3695 158.738C61.6272 159.36 63.119 160.162 63.4429 160.276C65.2512 160.936 66.7709 159.751 68.1932 158.494C68.6159 158.12 69.0133 157.438 69.5297 157.318C72.1076 156.695 73.4457 161.722 75.9823 159.485C76.7169 158.835 77.3451 156.582 77.3315 155.406C77.3095 153.532 76.2078 152.34 76.2158 150.455C76.2241 148.457 77.7934 146.929 77.6261 145.044Z" fill="#4A170E"/>
<path d="M64.2629 134.297C64.0095 135.646 63.1818 135.375 62.2969 136.751C61.4756 138.03 60.8966 141.843 62.7728 142.103C64.6523 142.368 67.5528 136.8 66.9658 134.557C66.6399 133.311 64.644 132.266 64.2629 134.297Z" fill="#E85123"/>
<path d="M69.3708 94.9872C68.4396 95.3338 68.1606 95.843 67.2684 96.9211C65.6892 98.8331 66.5881 101.39 68.6651 100.984C70.823 100.561 73.1378 93.579 69.3708 94.9872Z" fill="#E85123"/>
<path d="M61.4011 95.1356C60.3349 92.6859 58.5668 90.7734 56.4242 90.4477C54.7908 90.1987 52.4331 91.0491 50.9812 92.0403C50.4182 92.4248 50.0784 93.0806 49.4778 93.3675C48.5291 93.8116 47.2418 92.701 46.2638 92.6685C43.8416 92.5959 42.9361 98.1301 43.1509 100.577C43.6294 106.028 47.4107 103.793 50.2483 102.698C51.2306 102.319 52.5641 101.71 53.6223 102.13C54.973 102.665 55.4802 105.385 56.4934 105.826C56.6633 105.9 59.9286 105.291 60.2724 105.196C62.5776 104.559 62.4795 103.613 62.5001 100.451C62.5121 98.6478 62.1134 96.7718 61.4011 95.1356Z" fill="#FC8838"/>
<path opacity="0.2" d="M61.4011 95.1356C61.3372 94.989 61.2704 94.8442 61.2019 94.7017C62.0795 98.6335 59.5508 101.71 56.6803 100.596C55.4988 100.137 54.432 98.8482 53.2402 98.5426C51.8625 98.1898 50.0714 99.0763 48.7339 99.4634C47.031 99.9566 45.2705 101.561 43.4844 102.297C44.5742 105.478 47.7709 103.654 50.2486 102.698C51.231 102.319 52.5645 101.71 53.6226 102.13C54.9734 102.665 55.4805 105.385 56.4938 105.826C56.6637 105.9 59.9289 105.291 60.2728 105.196C62.5779 104.559 62.4798 103.613 62.5005 100.451C62.5121 98.6478 62.1134 96.7718 61.4011 95.1356Z" fill="#4A170E"/>
<path d="M28.6578 126.308C28.9318 126.126 29.261 125.941 29.6541 125.751C31.2213 124.996 36.2593 124.562 37.5779 125.674C38.092 126.107 38.3497 126.855 38.5964 127.499C40.1903 131.686 36.6335 133.425 37.389 137.222C38.0105 140.348 39.9698 142.769 36.9397 144.838C34.3758 146.588 28.8799 147.645 29.0489 141.691C29.133 138.745 31.1435 137.32 31.0504 134.314C30.935 130.59 25.0763 128.691 28.6578 126.308Z" fill="#FC8838"/>
<path opacity="0.2" d="M32.0806 136.464C32.194 134.546 33.7466 131.684 32.6785 130.626C32.1345 130.088 31.213 130.026 30.5951 129.606C29.6404 128.957 28.9663 128.064 28.4176 126.837C28.3761 126.744 28.3478 126.652 28.3149 126.559C25.4866 128.828 30.939 130.722 31.0504 134.315C31.1435 137.32 29.1329 138.745 29.0488 141.691C28.8799 147.644 34.3758 146.588 36.9397 144.839C38.5891 143.713 38.759 142.481 38.472 141.09C36.1476 144.386 31.8192 140.884 32.0806 136.464Z" fill="#4A170E"/>
<path d="M33.2012 149.897C34.304 147.481 31.8834 151.121 31.916 152.156C32.0174 155.417 33.8427 154.469 35.256 155.785C36.54 156.982 36.8313 159.463 38.8574 156.776C41.9564 152.676 37.4215 147.606 34.1533 147.936C33.3459 148.018 32.6303 151.149 33.2012 149.897Z" fill="#E85123"/>
<path d="M56.4325 136.388C56.5902 136.404 57.0261 136.334 56.8911 136.225C56.4861 135.895 55.9903 135.83 55.5347 135.657C54.7126 135.348 54.0086 135.456 53.0945 135.564C51.2855 135.775 49.0505 136.723 47.3173 137.449C43.0035 139.264 37.7072 148.494 40.2265 154.447C40.5557 155.227 40.6641 155.882 41.2158 156.462C42.7432 158.071 45.4401 156.473 46.7686 155.097C48.7126 153.077 49.9383 150.157 51.5156 147.703C53.2082 145.065 55.6537 143.787 57.4238 141.209C57.8063 140.651 58.914 139.112 58.2961 138.354C57.758 137.693 57.0404 137.005 56.4182 136.48C56.2147 136.312 55.53 135.987 55.7542 136.106C55.9753 136.22 56.1964 136.366 56.4325 136.388Z" fill="#E85123"/>
<path opacity="0.2" d="M58.2961 138.354C57.7581 137.693 57.0404 137.005 56.4183 136.48C56.3581 136.431 56.2553 136.367 56.1469 136.306C56.2403 136.347 56.3351 136.38 56.4326 136.388C56.5902 136.404 57.0261 136.334 56.8911 136.226C56.4861 135.895 55.9903 135.83 55.5347 135.657C55.3658 135.593 55.2022 135.551 55.0402 135.519C54.4114 138.08 52.6861 140.099 51.0128 141.429C49.945 142.278 48.6923 142.393 47.6402 143.15C46.3449 144.082 46.8002 146.827 46.1926 148.602C45.3367 151.105 43.8422 153.932 41.7851 154.782C41.3502 154.961 40.8936 155.03 40.4407 155.005C40.6365 155.547 40.8008 156.026 41.2158 156.462C42.7432 158.071 45.4401 156.473 46.7686 155.098C48.7126 153.077 49.9384 150.158 51.5156 147.704C53.2082 145.066 55.6537 143.788 57.4239 141.209C57.8066 140.651 58.914 139.113 58.2961 138.354Z" fill="#4A170E"/>
<path d="M70.9793 69.5121C70.7791 69.9238 70.2204 69.4039 69.8836 69.599C68.86 70.1786 64.9473 74.9239 65.5519 77.1068C65.8266 78.098 66.5575 78.629 66.9004 79.6037C67.195 80.4435 65.7877 82.4744 66.4152 82.7618C69.5866 84.2025 71.3827 77.7728 72.8 75.0428C73.3357 74.0138 74.2804 73.5585 74.7806 72.4969C75.2039 71.5979 76.3156 69.5015 75.8524 68.3423C75.0875 66.4298 71.6747 68.0928 70.9793 69.5121Z" fill="#FC8838"/>
<path d="M94.6229 66.4623C93.0517 64.0625 90.4173 66.5492 89.6099 68.0768C89.0292 69.1762 88.1872 71.1047 88.2035 72.5294C88.2205 73.9866 89.2171 74.7448 89.3807 76.1423C89.6754 78.661 87.5238 83.4496 90.6464 84.8092C94.4021 86.4396 96.55 78.9484 95.7645 74.9991C95.5983 74.1652 95.0283 73.4065 94.999 72.4697C94.9431 70.6819 97.5586 70.1999 97.1263 68.0278C96.8646 66.7113 95.1537 67.2749 94.6229 66.4623Z" fill="#E85123"/>
<path opacity="0.2" d="M97.1262 68.0277C96.9121 66.9505 95.7286 67.1314 95.0143 66.7875C94.6638 68.5592 93.8461 69.9157 92.7457 71.0904C92.2918 71.5751 91.8894 72.042 91.489 72.5913C91.4707 72.6167 91.4558 72.6434 91.4421 72.6706C91.4421 72.7151 91.4418 72.7565 91.4408 72.7926C91.4455 72.8104 91.4494 72.8247 91.4544 72.8452C91.5366 73.1699 91.6127 73.513 91.6842 73.868C92.3294 74.6842 92.6466 75.9689 92.1588 77.1873C92.2978 78.6735 92.3486 80.1699 92.2954 81.4493C92.2356 82.8833 91.8295 84.1507 91.1941 84.9798C94.6073 85.6957 96.5107 78.751 95.7645 74.9987C95.5982 74.1647 95.0282 73.4061 94.999 72.4692C94.9431 70.6819 97.5582 70.1999 97.1262 68.0277Z" fill="#4A170E"/>
<path opacity="0.3" d="M31.2832 118.192C32.0733 114.842 30.7089 112.05 31.1285 108.923C31.5721 105.617 34.7157 106.591 35.8569 104.297C36.6999 102.601 35.847 102.004 36.112 100.503C36.5147 98.2232 37.1109 97.518 38.1601 95.5842C39.2143 93.6409 39.3247 91.2745 40.148 89.5701C41.4745 86.8237 44.5742 84.1151 46.6552 82.5951C49.0721 80.8297 50.6048 80.9299 53.1002 80.5909C55.3754 80.2817 64.4927 73.3375 65.3054 78.9707C63.542 80.01 62.392 80.8573 60.448 80.9455C58.6945 81.0252 57.3178 80.4541 55.5676 81.0644C52.182 82.245 49.8519 85.0881 47.0536 87.7298C44.3587 90.2735 43.6407 94.1729 41.3505 97.3554C39.1458 100.419 39.5904 102.804 38.8897 106.828C38.1119 111.295 36.7904 113.481 34.5228 116.914C34.3362 117.196 30.0109 126.176 29.8064 124.745C29.4625 122.337 30.6038 120.65 31.1904 118.555C31.2236 118.433 31.2549 118.312 31.2832 118.192Z" fill="white"/>
<path d="M60.3812 75.569C56.6854 80.4853 48.9777 78.8451 44.5942 83.1396C41.2525 86.4134 38.1083 91.8956 37.094 97.3256C38.2603 96.5954 38.7188 94.0179 39.4767 92.603C40.4304 90.8224 41.6439 89.3086 42.715 87.6425C45.2729 83.663 47.7447 81.6334 51.7275 80.9308C54.616 80.4212 58.2766 79.6184 60.6692 77.2404C62.9594 74.9644 64.8053 71.7899 66.9436 69.3094C65.5768 70.22 64.0907 71.1484 62.834 72.4069C61.7573 73.4845 61.0842 75.2184 60.3812 75.569Z" fill="white"/>
<path d="M71.9762 83.4269C69.6561 85.0097 55.8217 83.7294 61.7848 89.0948C63.0079 90.1952 65.1352 91.0941 65.3935 93.388C65.6406 95.5815 62.8393 98.3836 64.7298 99.2056C66.8328 100.12 66.9432 95.8956 67.0303 94.2237C67.1836 91.2888 66.8122 89.9573 68.6278 87.8274C70.1555 86.0352 72.1395 85.5287 73.868 84.055C76.0874 82.1635 76.5357 80.1459 77.533 77.0898C75.3924 78.837 73.5508 82.3858 71.9762 83.4269Z" fill="white"/>
<path opacity="0.3" d="M47.1949 109.952C45.0556 109.499 39.1108 116.395 39.6169 119.753C39.9937 122.254 41.9597 120.694 42.6883 122.272C43.3753 123.76 42.1466 126.588 41.831 127.934C41.3761 129.876 39.5331 137.015 41.5221 138.447C43.4039 139.801 47.2444 130.138 49.787 129.205C51.2279 128.676 51.4258 130.448 52.3892 128.36C53.6016 125.733 51.2811 123.452 50.2845 121.744C48.0858 117.975 48.0379 115.351 50.9666 112.14C52.2445 110.739 55.5044 108.053 52.0899 106.533C50.2227 105.702 48.2929 107.991 47.13 109.596C46.8806 109.485 46.9721 109.254 47.1949 109.952Z" fill="white"/>
<path d="M35.8925 160.108C41.0093 161.341 43.7827 158.963 47.7901 155.234C49.7894 153.373 51.4491 151.982 53.0616 149.413C54.1377 147.7 55.2361 144.845 56.8349 144.056C54.959 146.962 53.178 149.935 51.4857 153.081C50.0088 155.825 48.0771 156.953 46.018 158.977C43.2041 161.742 38.6286 163.895 35.8925 160.108Z" fill="white"/>
<path d="M81.1018 133.293C78.8558 127.229 82.8293 120.228 87.1893 118.186C87.5524 120.748 85.5289 121.502 84.5373 123.071C83.381 124.901 80.4789 133.912 81.7622 136.354C81.0725 135.042 80.7204 132.871 81.1018 133.293Z" fill="white"/>
<path d="M93.4208 66.9337C92.3626 64.8145 90.0435 66.3889 89.2055 68.0443C87.5997 71.2171 88.576 75.8274 88.1893 79.3779C88.1553 79.6884 88.4752 79.9009 88.6206 79.6296C90.824 75.516 87.7377 67.3133 93.2565 67.4304C93.4457 67.4344 93.5089 67.1101 93.4208 66.9337Z" fill="white"/>
<path d="M83.2204 48.1231C83.2151 48.0955 83.1791 48.1066 83.1838 48.1347C83.7308 51.3382 83.1775 54.1773 82.4336 57.2262C82.402 57.3554 82.5367 57.4957 82.6002 57.3598C83.8908 54.5956 83.8126 51.1858 83.2204 48.1231Z" fill="white"/>
<path d="M77.7238 60.908C76.8739 61.7433 76.1356 62.7822 75.3711 63.7502C75.2474 63.907 75.3967 64.1988 75.5317 64.0438C76.3401 63.1163 77.1974 62.2302 77.915 61.1735C78.0221 61.0163 77.8479 60.786 77.7238 60.908Z" fill="white"/>
<path d="M63.9007 110.441C60.1969 110.496 57.0663 112.1 54.1686 115.15C54.0532 115.272 54.1806 115.503 54.3029 115.396C57.1694 112.892 60.5431 111.36 63.928 110.794C64.1006 110.765 64.069 110.438 63.9007 110.441Z" fill="white"/>
<path d="M77.7355 86.2811C77.499 87.5284 77.1389 88.811 77.2327 90.1113C77.2476 90.318 77.4595 90.3519 77.5226 90.171C77.935 88.9892 77.9157 87.6153 78.0042 86.3359C78.0205 86.0998 77.7784 86.0557 77.7355 86.2811Z" fill="white"/>
<path d="M36.8376 128.736C35.9813 125.357 32.6582 124.559 30.4212 125.539C30.2297 125.622 30.3018 126.053 30.504 126.004C32.9778 125.408 34.7143 127.097 36.538 129.03C36.6906 129.192 36.8978 128.973 36.8376 128.736Z" fill="white"/>
<path d="M33.2106 106.128C30.8731 109.387 30.2283 114.197 31.4614 118.368C31.5192 118.563 31.7617 118.499 31.7357 118.28C31.2313 114.031 31.8441 110.111 33.5128 106.449C33.6412 106.167 33.3851 105.885 33.2106 106.128Z" fill="white"/>
<path d="M72.196 145.495C70.2856 145.288 68.4852 146.041 66.8471 147.354C65.5026 148.432 63.4096 150.458 63.2892 152.749C63.2869 152.792 63.3175 152.814 63.3441 152.794C64.6806 151.8 65.5568 149.778 66.889 148.636C68.5065 147.248 70.3211 146.627 72.1844 146.124C72.4281 146.059 72.4846 145.526 72.196 145.495Z" fill="white"/>
<path opacity="0.3" d="M94.2684 35.0668C94.442 34.7122 94.6163 34.3411 94.7343 33.8885C95.5487 30.7648 95.6072 25.4092 95.2574 22.1562C94.9042 18.8735 95.8982 15.1683 96.1726 20.589C96.2933 22.9759 96.2261 24.0487 96.9377 26.0596C97.3644 27.2655 98.0062 27.842 98.2909 29.419C98.9579 33.1138 96.7242 37.4337 93.6845 36.7944C93.7427 36.1062 94.0044 35.6059 94.2684 35.0668Z" fill="white"/>
<path d="M102.814 4.75772C101.43 3.6097 99.0982 5.81619 98.1109 7.04261C96.7651 8.71407 95.5008 11.2333 95.8506 13.7899C95.8889 14.0697 96.1576 14.1347 96.2553 13.8732C97.0711 11.6953 97.6005 9.50971 99.0141 7.84315C99.6443 7.10052 100.348 6.51738 101.113 6.05497C101.697 5.70214 102.386 5.56048 102.827 4.91809C102.856 4.87666 102.851 4.78845 102.814 4.75772Z" fill="white"/>
<path d="M95.4476 22.5829C95.436 22.4983 95.3396 22.5094 95.3472 22.5968C95.7928 27.8205 94.7905 32.4999 93.3673 37.2786C93.2612 37.6341 93.6533 37.9972 93.8189 37.6403C95.9248 33.1084 96.153 27.6904 95.4476 22.5829Z" fill="white"/>
<path d="M168 115.672L162.501 167.115C161.458 175.007 149.38 178.999 133.198 178.999C129.583 178.999 126.118 178.734 122.924 178.247C119.434 177.721 116.26 176.925 113.551 175.934C107.631 173.756 103.911 170.615 103.911 167.115L98.412 115.672H168V115.672Z" fill="#C3EFF8"/>
<path opacity="0.3" d="M122.923 115.672V178.247C119.434 177.721 116.259 176.925 113.551 175.934V115.672H122.923Z" fill="white"/>
<path opacity="0.2" d="M161.388 115.672C163.169 118.505 162.572 123.363 161.837 126.504C160.618 131.716 159.086 136.94 157.51 141.972C154.602 151.259 151.175 160.09 145.279 166.588C140.242 172.137 134.244 175.851 127.95 178.032C127.318 178.251 126.68 178.449 126.041 178.642C128.332 178.875 130.729 179 133.199 179C149.381 179 161.459 175.008 162.502 167.116L167.998 115.673H161.388V115.672Z" fill="#4A0E3A"/>
<path opacity="0.2" d="M108.194 173.309C109.636 169.444 109.212 163.573 108.862 159.815C108.202 152.732 106.779 145.435 104.634 138.891C103.435 135.233 102.077 131.284 102.503 127.184C102.927 123.106 105.2 120.331 107.878 118.658C112.107 116.018 116.655 115.651 121.252 115.838C125.016 115.993 128.674 116.006 132.38 115.672H98.4135L103.91 167.115C103.91 169.386 105.477 171.506 108.194 173.309Z" fill="#4A0E3A"/>
<path d="M98.4092 115.667C98.4092 109.102 113.987 103.777 133.205 103.777C152.421 103.777 168 109.102 168 115.667C168 122.237 152.422 127.562 133.205 127.562C113.987 127.562 98.4092 122.237 98.4092 115.667Z" fill="#A1D2DE"/>
<path d="M133.2 115.672C120.355 115.672 109.268 118.077 103.24 121.614C109.269 125.151 120.358 127.557 133.2 127.557C146.041 127.557 157.143 125.151 163.172 121.614C157.144 118.077 146.044 115.672 133.2 115.672Z" fill="#FF1D00"/>
<path d="M133.205 105.943C142.367 105.943 150.963 107.157 157.409 109.359C164.507 111.785 166.382 114.545 166.382 115.667C166.382 116.789 164.507 119.552 157.409 121.979C150.964 124.182 142.368 125.395 133.205 125.395C124.041 125.395 115.446 124.182 109.001 121.979C101.903 119.552 100.027 116.789 100.027 115.667C100.027 114.546 101.903 111.785 109.001 109.359C115.446 107.157 124.042 105.943 133.205 105.943ZM133.205 103.777C113.988 103.777 98.4092 109.102 98.4092 115.667C98.4092 122.237 113.987 127.562 133.205 127.562C152.421 127.562 168 122.237 168 115.667C167.999 109.102 152.421 103.777 133.205 103.777Z" fill="#EBF0F2"/>
</g>
<defs>
<clipPath id="clip0_3119_4201">
<rect width="168" height="179" fill="white"/>
</clipPath>
</defs>
</svg>
