<svg width="46" height="46" viewBox="0 0 46 46" fill="none" xmlns="http://www.w3.org/2000/svg">
<rect x="0.5" y="0.5" width="45" height="45" rx="22.5" fill="white" stroke="#FDECEC"/>
<path d="M21.3918 27.5565L22.359 27.4957C22.8256 27.4661 23.1745 27.0654 23.1397 26.6013L21.8304 9.46342C21.7948 8.99869 21.3883 8.64561 20.9218 8.67522L19.9545 8.73604C19.488 8.76565 19.1377 9.16658 19.1733 9.63131L20.4826 26.7691C20.5188 27.233 20.9253 27.5861 21.3918 27.5565Z" fill="#F9B361"/>
<path opacity="0.19" d="M22.6412 26.7326L21.3173 9.39468C21.296 9.12118 21.3611 8.88073 21.4747 8.74491C21.6631 8.86186 21.8019 9.08978 21.8231 9.36328L23.1485 26.701C23.1688 26.9739 23.0656 27.2182 22.8966 27.3572C22.7636 27.237 22.6624 27.0061 22.6412 26.7326Z" fill="#FFF6F7"/>
<path d="M28.9981 28.9732L29.9575 29.1322C30.4198 29.2084 30.8528 28.8993 30.9242 28.4393L33.5544 11.5033C33.6253 11.0441 33.3092 10.6093 32.846 10.5325L31.8866 10.3735C31.4243 10.2973 30.9913 10.6064 30.9199 11.0663L28.2891 28.0033C28.2189 28.4615 28.5358 28.8969 28.9981 28.9732Z" fill="#F9B361"/>
<path opacity="0.19" d="M30.4072 28.4556L33.0678 11.3203C33.11 11.0504 33.2286 10.8317 33.3703 10.7252C33.5275 10.882 33.6112 11.1346 33.5696 11.4037L30.9089 28.539C30.8667 28.8089 30.7104 29.0217 30.5134 29.1202C30.4118 28.9728 30.3649 28.7255 30.4072 28.4556Z" fill="#FFF6F7"/>
<path d="M20.6755 27.946L21.6188 27.73C22.0732 27.6257 22.3532 27.174 22.2428 26.7204L18.1776 9.98275C18.0678 9.52828 17.6097 9.2448 17.1544 9.34843L16.2116 9.56365C15.7566 9.66872 15.4775 10.1211 15.5879 10.5747L19.6525 27.3132C19.7621 27.7662 20.2202 28.0497 20.6755 27.946Z" fill="#F9B361"/>
<path opacity="0.19" d="M21.7721 26.9309L17.6603 9.99734C17.5954 9.73014 17.6216 9.48172 17.7103 9.32875C17.9151 9.41444 18.0886 9.61751 18.1541 9.88386L22.2659 26.8174C22.3308 27.0846 22.2682 27.3418 22.1243 27.5068C21.9742 27.4099 21.837 27.1981 21.7721 26.9309Z" fill="#FFF6F7"/>
<path d="M25.5283 27.8461L26.4983 27.8772C26.966 27.8921 27.3529 27.5264 27.362 27.0611L27.6964 9.89829C27.7055 9.43303 27.3331 9.04331 26.8654 9.02839L25.8949 8.99812C25.4272 8.9832 25.0409 9.34809 25.0317 9.81335L24.6974 26.9762C24.6891 27.4421 25.0607 27.8312 25.5283 27.8461Z" fill="#F9B361"/>
<path opacity="0.19" d="M26.8529 27.1454L27.1906 9.78222C27.1962 9.5084 27.2843 9.27502 27.4105 9.15038C27.5867 9.28516 27.7037 9.52442 27.6981 9.79823L27.3598 27.1623C27.3542 27.4361 27.2278 27.6681 27.0467 27.7914C26.9263 27.6586 26.8473 27.4192 26.8529 27.1454Z" fill="#FFF6F7"/>
<path d="M18.2866 30.6733L19.2305 30.4601C19.6852 30.3573 19.9661 29.9061 19.8571 29.4523L15.8428 12.7033C15.7338 12.2494 15.2769 11.9643 14.8222 12.067L13.8783 12.2802C13.4235 12.383 13.1427 12.8342 13.2511 13.2889L17.2654 30.0378C17.3744 30.4917 17.8313 30.7769 18.2866 30.6733Z" fill="#F9B361"/>
<path opacity="0.19" d="M19.3871 29.6622L15.3253 12.7167C15.2611 12.4487 15.2881 12.2008 15.3776 12.0485C15.5818 12.135 15.7548 12.3389 15.8188 12.6055L19.8806 29.551C19.9446 29.8176 19.8814 30.0756 19.7367 30.2401C19.5877 30.1414 19.4511 29.9288 19.3871 29.6622Z" fill="#FFF6F7"/>
<path d="M27.4265 29.8196L28.3956 29.8814C28.8631 29.9112 29.2615 29.5584 29.2851 29.0943L30.1675 11.9566C30.1917 11.4916 29.832 11.0907 29.3653 11.0614L28.3962 10.9996C27.9286 10.9697 27.5303 11.3226 27.5067 11.7867L26.6234 28.9238C26.6001 29.3894 26.9589 29.7897 27.4265 29.8196Z" fill="#F9B361"/>
<path opacity="0.19" d="M28.7725 29.1611L29.6661 11.8247C29.6806 11.5507 29.7762 11.3213 29.9061 11.2004C30.0788 11.3403 30.1877 11.584 30.1729 11.8565L29.2796 29.1944C29.2656 29.4674 29.1317 29.6956 28.9458 29.813C28.8297 29.6757 28.758 29.435 28.7725 29.1611Z" fill="#FFF6F7"/>
<path d="M23.7726 29.6028L24.7414 29.5618C25.209 29.5417 25.5667 29.1483 25.5401 28.6835L24.5844 11.5273C24.5583 11.0616 24.158 10.7015 23.6909 10.7207L22.7222 10.7617C22.2554 10.7824 21.8976 11.1757 21.9229 11.6408L22.8791 28.7962C22.9052 29.2619 23.3049 29.6229 23.7726 29.6028Z" fill="#F9B361"/>
<path opacity="0.19" d="M25.039 28.8057L24.0716 11.4488C24.057 11.1748 24.1276 10.9356 24.2432 10.8025C24.4292 10.9228 24.5633 11.1538 24.5785 11.4269L25.5459 28.7838C25.5611 29.0569 25.4521 29.2984 25.2811 29.4348C25.1504 29.3113 25.0541 29.0788 25.039 28.8057Z" fill="#FFF6F7"/>
<path d="M34.2891 16.3621C33.0745 16.3254 31.9015 16.9015 31.1526 17.9065C29.4574 20.1837 26.4169 21.5478 23.1503 21.208C20.3311 20.9144 17.994 19.421 16.7112 17.3676C16.0892 16.3724 15.0149 15.7756 13.849 15.7399L13.2951 15.7232C12.6283 15.7029 12.1073 16.2379 12.2065 16.8426L13.3836 24.0276L15.1108 35.683C15.1796 36.1492 15.556 36.4667 15.9786 36.4143L21.6604 35.7133C22.2618 35.6388 22.8664 35.6352 23.4644 35.7021L29.948 36.4226C30.3817 36.4704 30.7905 36.1485 30.9039 35.6698L33.0107 26.7239L35.3444 17.6213C35.5069 16.9937 34.9951 16.3844 34.2891 16.3621Z" fill="#F94A3D"/>
<path d="M16.6258 24.124L15.4487 16.939C15.4082 16.6936 15.4744 16.4626 15.606 16.2729C15.0856 15.9491 14.4828 15.76 13.8498 15.7403L13.2959 15.7236C12.6291 15.7033 12.1081 16.2383 12.2073 16.843L13.3844 24.028L15.1116 35.6834C15.1804 36.1496 15.5568 36.4671 15.9794 36.4147L18.4656 36.1082C18.4109 36.0106 18.3711 35.9007 18.353 35.7794L16.6258 24.124Z" fill="#FF7664"/>
</svg>
